<?xml version="1.0" encoding="utf-8"?>
<!-- Generator: Adobe Illustrator 26.5.0, SVG Export Plug-In . SVG Version: 6.00 Build 0)  -->
<svg version="1.1" id="Laag_1" xmlns="http://www.w3.org/2000/svg" xmlns:xlink="http://www.w3.org/1999/xlink" x="0px" y="0px"
	 viewBox="0 0 118.16 125.83" style="enable-background:new 0 0 118.16 125.83;" xml:space="preserve">
<style type="text/css">
	.st0{fill:url(#SVGID_1_);}
	.st1{fill:url(#SVGID_00000168095261492810432590000008933896162103808393_);}
</style>
<g>
	<linearGradient id="SVGID_1_" gradientUnits="userSpaceOnUse" x1="23.0172" y1="117.8984" x2="80.3505" y2="28.5651">
		<stop  offset="0" style="stop-color:#485DA1"/>
		<stop  offset="0.1213" style="stop-color:#4862A5"/>
		<stop  offset="0.3057" style="stop-color:#4770AE"/>
		<stop  offset="0.5302" style="stop-color:#4686BE"/>
		<stop  offset="0.7839" style="stop-color:#47A4D2"/>
		<stop  offset="1" style="stop-color:#4BC0E3"/>
	</linearGradient>
	<path class="st0" d="M117.33,64.31c0.02-0.03,0.03-0.05,0.05-0.08c0.07-0.1,0.13-0.2,0.18-0.3c0.02-0.04,0.04-0.08,0.06-0.12
		c0.05-0.1,0.1-0.19,0.14-0.29c0.02-0.05,0.04-0.11,0.06-0.16c0.04-0.09,0.07-0.18,0.1-0.28c0.02-0.07,0.04-0.14,0.06-0.21
		c0.02-0.08,0.05-0.17,0.06-0.25c0.02-0.09,0.03-0.18,0.04-0.27c0.01-0.07,0.03-0.14,0.03-0.21c0.02-0.14,0.02-0.29,0.02-0.43
		c0-0.02,0-0.04,0-0.06c0,0,0,0,0,0c0,0,0,0,0,0c0-0.17-0.01-0.34-0.03-0.5c0-0.03-0.01-0.05-0.01-0.08
		c-0.02-0.14-0.04-0.28-0.07-0.41c-0.01-0.04-0.02-0.07-0.03-0.11c-0.03-0.12-0.06-0.24-0.1-0.36c-0.01-0.04-0.03-0.09-0.05-0.13
		c-0.04-0.11-0.08-0.22-0.13-0.32c-0.02-0.05-0.05-0.1-0.07-0.14c-0.05-0.1-0.1-0.19-0.15-0.29c-0.03-0.05-0.06-0.1-0.09-0.15
		c-0.06-0.09-0.12-0.18-0.18-0.26c-0.03-0.05-0.07-0.09-0.1-0.14c-0.07-0.09-0.14-0.17-0.22-0.25c-0.03-0.04-0.07-0.07-0.1-0.11
		c-0.09-0.1-0.19-0.19-0.3-0.28c-0.02-0.01-0.03-0.03-0.05-0.04c-0.79-0.67-1.33-1.58-1.56-2.6l0.01-0.04h-0.02
		c-0.07-0.33-0.11-0.68-0.11-1.03v-7.95h-0.04v-7.19c0-5.98-3.22-11.56-8.4-14.55L67.46,2.24c-5.18-2.99-11.62-2.99-16.8,0
		L11.74,24.72c-5.18,2.99-8.4,8.57-8.4,14.55v14.69h0v0.51c0,1.42-0.59,2.71-1.62,3.56C0.63,58.92,0,60.24,0,61.65
		s0.63,2.73,1.72,3.63c1.03,0.84,1.62,2.14,1.62,3.56v0.65h0v23.64c0,0.75,0.61,1.35,1.35,1.35s1.35-0.61,1.35-1.35V69.49V67.4
		c0-0.69,0.37-1.33,0.97-1.68c0.58-0.34,1.31-0.34,1.89,0l21.66,12.5l0,15.83h0v9.07c0,0.72-0.38,1.37-0.98,1.7
		c-0.11,0.06-0.22,0.13-0.33,0.2c-0.02,0.01-0.04,0.03-0.06,0.04c-0.1,0.07-0.2,0.15-0.3,0.22c-0.01,0.01-0.03,0.02-0.04,0.03
		c-0.22,0.19-0.43,0.39-0.62,0.62c0,0,0,0-0.01,0.01c-0.09,0.11-0.17,0.22-0.25,0.33c-0.01,0.02-0.02,0.03-0.03,0.05
		c-0.08,0.12-0.16,0.25-0.23,0.38c-0.05,0.1-0.1,0.2-0.14,0.3c-0.02,0.03-0.03,0.07-0.05,0.1c-0.04,0.09-0.07,0.19-0.1,0.28
		c-0.02,0.05-0.04,0.1-0.05,0.15c-0.02,0.06-0.03,0.12-0.04,0.17c-0.05,0.19-0.09,0.39-0.12,0.59c0,0.04-0.01,0.07-0.02,0.11
		c-0.01,0.11-0.02,0.22-0.02,0.33c0,0.04-0.01,0.08-0.01,0.12c0,0.02,0,0.05,0,0.07c0,0.09,0.01,0.19,0.01,0.28
		c0,0.03,0,0.06,0,0.09c0.01,0.13,0.03,0.25,0.05,0.38c0,0.02,0,0.03,0.01,0.05c0.02,0.13,0.05,0.26,0.08,0.38
		c0,0.01,0.01,0.02,0.01,0.04c0.03,0.13,0.07,0.25,0.12,0.37c0.01,0.02,0.01,0.04,0.02,0.06c0.04,0.11,0.09,0.22,0.14,0.33
		c0.02,0.03,0.03,0.07,0.05,0.1c0.04,0.09,0.09,0.18,0.14,0.26c0.03,0.06,0.07,0.11,0.1,0.16c0.04,0.06,0.08,0.13,0.12,0.19
		c0.05,0.08,0.11,0.15,0.17,0.22c0.03,0.04,0.06,0.08,0.09,0.12c0.07,0.09,0.15,0.17,0.22,0.25c0.02,0.02,0.05,0.05,0.07,0.07
		c0.08,0.08,0.17,0.16,0.26,0.23c0.03,0.02,0.05,0.05,0.08,0.07c0.08,0.07,0.17,0.13,0.26,0.19c0.04,0.03,0.08,0.06,0.12,0.08
		c0.02,0.02,0.05,0.03,0.07,0.05c0.21,0.13,0.43,0.25,0.66,0.35c0.02,0.01,0.04,0.02,0.06,0.03c0.12,0.05,0.24,0.09,0.36,0.13
		c0.01,0,0.03,0.01,0.04,0.01c0.29,0.09,0.59,0.15,0.89,0.18c0.01,0,0.01,0,0.02,0c0.15,0.02,0.31,0.03,0.46,0.03
		c0.05,0,0.1-0.01,0.14-0.01c0.13,0,0.26-0.01,0.38-0.02c0.05-0.01,0.11-0.02,0.16-0.02c0.13-0.02,0.26-0.04,0.38-0.07
		c0.02-0.01,0.04-0.01,0.07-0.01c0.04-0.01,0.08-0.02,0.11-0.03c0.09-0.02,0.17-0.05,0.25-0.08c0.07-0.03,0.15-0.05,0.22-0.08
		c0.06-0.02,0.12-0.05,0.19-0.08c0.09-0.04,0.19-0.09,0.28-0.13c0.03-0.02,0.07-0.04,0.1-0.06c0.11-0.06,0.22-0.13,0.32-0.19
		c0.01-0.01,0.03-0.02,0.04-0.03c0.12-0.08,0.23-0.16,0.33-0.25c0.01,0,0.01-0.01,0.02-0.01c0.11-0.09,0.21-0.19,0.31-0.29
		c0.01-0.01,0.02-0.02,0.03-0.03c0.09-0.09,0.18-0.19,0.27-0.29c0.02-0.02,0.04-0.05,0.06-0.07c0.07-0.09,0.14-0.18,0.2-0.27
		c0.03-0.05,0.06-0.1,0.09-0.14c0.04-0.06,0.08-0.11,0.11-0.17c0.02-0.03,0.03-0.06,0.04-0.08c0.01-0.02,0.02-0.04,0.03-0.06
		c0.06-0.11,0.11-0.22,0.16-0.33c0.01-0.02,0.02-0.04,0.03-0.06c0.05-0.12,0.09-0.24,0.13-0.37c0.01-0.04,0.02-0.08,0.04-0.12
		c0.03-0.1,0.05-0.19,0.08-0.29c0.01-0.04,0.02-0.07,0.03-0.11c0.02-0.12,0.04-0.25,0.06-0.38c0.01-0.05,0.01-0.09,0.01-0.14
		c0.01-0.1,0.01-0.2,0.02-0.3c0-0.03,0-0.06,0-0.09c0-0.01,0-0.02,0-0.03c0-0.73,0.37-1.4,0.98-1.75l10-5.77l-0.01-0.01l7.22-4.17
		c0.55-0.32,1.18-0.43,1.8-0.34c0.68,0.41,1.46,0.65,2.3,0.67c0.03,0,0.05,0,0.08,0c0.01,0,0.02,0,0.04,0
		c0.69,0,1.33-0.15,1.92-0.42c0,0,0,0,0,0c0.83-0.37,1.78-0.33,2.56,0.12l2.67,1.54l13.47,7.79c0.02,0.01,0.05,0.02,0.07,0.04
		c0.78,0.48,1.25,1.3,1.25,2.23c0,0.94-0.48,1.79-1.3,2.26l-0.15,0.08L58.28,123.3c-0.65,0.37-0.87,1.2-0.5,1.85
		c0.24,0.42,0.69,0.68,1.17,0.68c0.24,0,0.47-0.06,0.67-0.18l7.44-4.27c0.14-0.03,0.27-0.08,0.4-0.15l13.35-7.7
		c1.08-0.52,2.31-0.62,3.46-0.29c0.57,0.24,1.19,0.38,1.84,0.38c2.35,0,4.29-1.73,4.63-3.99c0.32-1.27,1.03-2.32,2.02-3l13.63-7.87
		c5.18-2.99,8.4-8.57,8.4-14.55V74.13h0.04v-5.22c0-1.43,0.61-2.77,1.68-3.67c0.21-0.18,0.4-0.38,0.57-0.58
		c0.01-0.01,0.02-0.02,0.03-0.04C117.18,64.52,117.25,64.41,117.33,64.31z M7.66,58.02c-1.03-0.84-1.62-2.14-1.62-3.56v-0.51V39.27
		c0-5.02,2.7-9.7,7.05-12.21l17.48-10.09l0,22.19c0,0.01,0,0.02,0,0.03v0.23c0,1.11-0.5,2.13-1.35,2.72
		c-1.25,0.88-1.99,2.31-1.99,3.84c0,1.52,0.74,2.96,1.99,3.84c0.84,0.59,1.35,1.61,1.35,2.72v0.36c0,0.01,0,0.02,0,0.03V75.1
		L10.32,63.42c-0.59-0.34-0.95-1-0.94-1.72l0-0.05C9.38,60.24,8.75,58.91,7.66,58.02z M4.69,60c0.44,0,0.84,0.17,1.16,0.48
		c0.41,0.41,0.57,0.97,0.44,1.55c-0.13,0.6-0.62,1.09-1.22,1.22h0c-0.57,0.13-1.14-0.03-1.55-0.44c-0.41-0.41-0.57-0.97-0.44-1.55
		c0.13-0.6,0.62-1.09,1.22-1.22C4.44,60.02,4.57,60,4.69,60z M60.46,93.49c-0.04,0.09-0.08,0.17-0.14,0.25
		c-0.01,0.01-0.02,0.03-0.03,0.04c-0.11,0.16-0.25,0.3-0.42,0.42c-0.01,0.01-0.02,0.01-0.03,0.02c-0.08,0.05-0.16,0.09-0.24,0.13
		c-0.01,0-0.02,0.01-0.03,0.01c-0.08,0.03-0.17,0.06-0.26,0.08c-0.03,0.01-0.06,0.01-0.09,0.02c-0.09,0.02-0.19,0.03-0.29,0.03
		c0,0,0,0,0,0c-0.11,0-0.21-0.01-0.31-0.03c-0.01,0-0.02,0-0.03-0.01c-0.1-0.02-0.19-0.05-0.29-0.09c-0.01,0-0.02-0.01-0.03-0.01
		c-0.08-0.04-0.16-0.08-0.24-0.13c-0.01-0.01-0.02-0.01-0.03-0.02c-0.43-0.3-0.72-0.79-0.72-1.36c0-0.11,0.01-0.22,0.03-0.33
		c0,0,0,0,0,0c0.02-0.1,0.05-0.2,0.09-0.3c0-0.01,0-0.01,0.01-0.02c0.04-0.09,0.09-0.18,0.14-0.26c0.01-0.01,0.01-0.02,0.02-0.02
		c0.12-0.17,0.26-0.31,0.43-0.43c0.01,0,0.01-0.01,0.02-0.01c0.08-0.05,0.17-0.1,0.26-0.14c0.01,0,0.01-0.01,0.02-0.01
		c0.08-0.04,0.17-0.06,0.27-0.08c0.03-0.01,0.06-0.01,0.08-0.02c0.09-0.02,0.19-0.03,0.29-0.03c0.11,0,0.22,0.01,0.33,0.03
		c0.01,0,0.01,0,0.02,0c0.1,0.02,0.19,0.05,0.28,0.09c0.03,0.01,0.06,0.03,0.09,0.04c0.06,0.03,0.13,0.06,0.19,0.1
		c0.03,0.02,0.05,0.04,0.08,0.06c0.31,0.24,0.54,0.58,0.63,0.97c0,0,0,0.01,0,0.01c0.02,0.11,0.03,0.21,0.03,0.33
		c0,0.11-0.01,0.22-0.03,0.32c0,0.01,0,0.01-0.01,0.02c-0.02,0.09-0.05,0.18-0.08,0.27C60.47,93.46,60.47,93.47,60.46,93.49z
		 M33.27,16.99l23.09,13.34L37.2,41.43c-0.82,0.47-1.8,0.47-2.62,0c-0.81-0.47-1.3-1.3-1.31-2.23v-8.42h0L33.27,16.99z
		 M111.95,61.01c0.04-0.09,0.09-0.18,0.14-0.26c0.01-0.01,0.01-0.02,0.02-0.03c0.11-0.16,0.25-0.3,0.42-0.42
		c0.02-0.01,0.03-0.02,0.05-0.03c0.07-0.04,0.14-0.08,0.21-0.12c0.02-0.01,0.04-0.02,0.05-0.03c0.08-0.03,0.17-0.06,0.25-0.08
		c0.04-0.01,0.08-0.01,0.12-0.02c0.05-0.01,0.1-0.01,0.15-0.02c0.03,0,0.07-0.01,0.1-0.01c0.44,0,0.84,0.17,1.16,0.48
		c0.02,0.02,0.04,0.05,0.07,0.07c0.03,0.04,0.07,0.08,0.1,0.12c0.02,0.03,0.04,0.06,0.06,0.09c0.05,0.07,0.09,0.15,0.12,0.23
		c0,0.01,0,0.01,0.01,0.02c0.04,0.09,0.06,0.17,0.08,0.27c0,0.02,0.01,0.04,0.01,0.06c0.02,0.1,0.03,0.19,0.03,0.29
		c0,0.01,0,0.03,0,0.04c0,0.1-0.01,0.2-0.03,0.3c0,0,0,0.01,0,0.01c-0.15,0.75-0.82,1.31-1.61,1.31c-0.79,0-1.45-0.56-1.61-1.31
		c0-0.01,0-0.01,0-0.02c-0.02-0.1-0.03-0.2-0.03-0.31c0-0.02,0-0.03,0-0.05c0-0.09,0.01-0.18,0.03-0.27c0-0.01,0-0.03,0.01-0.04
		C111.88,61.2,111.91,61.1,111.95,61.01C111.95,61.01,111.95,61.01,111.95,61.01z M69.3,66.09c-0.03-0.02-0.07-0.04-0.1-0.05
		c-1.52-0.92-2.43-2.51-2.43-4.3c0-1.81,0.94-3.44,2.51-4.35l11.65-6.74c0.4-0.23,0.86-0.36,1.31-0.36c0.45,0,0.9,0.12,1.31,0.35
		c0.82,0.47,1.31,1.32,1.31,2.27v22.16L69.3,66.09z M58.95,57.47c2.31,0,4.18,1.87,4.18,4.18c0,2.31-1.87,4.18-4.18,4.18
		c-2.31,0-4.18-1.87-4.18-4.18C54.77,59.34,56.64,57.47,58.95,57.47z M80.89,46.03c0,0.94-0.49,1.79-1.31,2.26l-11.64,6.73
		c-1.57,0.91-3.45,0.91-5.02,0c-1.57-0.91-2.51-2.53-2.51-4.35V32.7l19.16,11.07c0.02,0.01,0.04,0.02,0.07,0.04
		C80.42,44.29,80.89,45.11,80.89,46.03z M38.53,43.78l19.17-11.09v17.99v0.01c0,1.82-0.94,3.44-2.51,4.35
		c-1.54,0.89-3.37,0.9-4.92,0.05c-0.03-0.02-0.05-0.03-0.08-0.05l-11.64-6.73c-0.02-0.01-0.05-0.02-0.07-0.04
		c-0.78-0.48-1.25-1.3-1.25-2.23C37.23,45.1,37.72,44.26,38.53,43.78z M61.72,88.51c-0.82-0.47-1.31-1.32-1.31-2.27V72.79v-0.01
		c0-1.82,0.94-3.44,2.51-4.35c0.77-0.45,1.64-0.68,2.51-0.68c0.83,0,1.66,0.22,2.41,0.63c0.03,0.02,0.05,0.03,0.08,0.05l15.57,9
		L64.34,88.51C63.52,88.99,62.54,88.99,61.72,88.51z M106.73,63.99L87.56,75.09V52.92v0c0-0.95,0.49-1.79,1.31-2.27
		c0.4-0.23,0.85-0.36,1.31-0.36c0.38,0,0.76,0.09,1.11,0.26l8.15,4.7l0.01-0.01l7.3,4.22c0.82,0.47,1.31,1.32,1.31,2.26
		C108.04,62.68,107.55,63.52,106.73,63.99z M53.8,88.52L34.63,77.44l15.54-8.99c1.57-0.91,3.45-0.91,5.02,0
		c1.57,0.91,2.51,2.53,2.51,4.35v13.46v0c0,0.95-0.49,1.79-1.31,2.27c-0.8,0.46-1.75,0.47-2.55,0.03
		C53.83,88.54,53.81,88.53,53.8,88.52z M87.56,101.94V78.22l20.51-11.87c0.82-0.47,1.8-0.47,2.62,0c0.82,0.47,1.31,1.32,1.31,2.27
		v15.74c0,4.92-2.65,9.51-6.91,11.98l-13.6,7.87c-0.82,0.47-1.8,0.47-2.62,0C88.04,103.74,87.56,102.89,87.56,101.94z M31.92,44.33
		c0.44,0,0.84,0.17,1.16,0.48c0.41,0.41,0.57,0.97,0.44,1.55c-0.13,0.6-0.62,1.09-1.22,1.22c-0.57,0.13-1.14-0.03-1.55-0.44
		c-0.41-0.41-0.57-0.97-0.44-1.55c0.13-0.6,0.62-1.09,1.22-1.22C31.67,44.34,31.8,44.33,31.92,44.33z M33.27,58.45L33.27,58.45
		l0-5.57c0.01-0.93,0.5-1.77,1.31-2.23c0.4-0.23,0.85-0.36,1.31-0.36c0.43,0,0.86,0.11,1.24,0.32c0.02,0.01,0.04,0.02,0.06,0.03
		l11.64,6.73c0.03,0.02,0.07,0.04,0.1,0.05c1.52,0.92,2.43,2.51,2.43,4.3c0,1.81-0.94,3.44-2.51,4.35l-15.57,9.01V58.45z
		 M84.85,27.22v11.94c0,0.95-0.49,1.79-1.31,2.27c-0.8,0.46-1.75,0.47-2.55,0.03c-0.02-0.01-0.03-0.02-0.05-0.03L61.77,30.35
		l23.08-13.35V27.22z M80.94,104.21l-15.35-8.87c-0.76-0.48-1.22-1.3-1.22-2.21c0-0.95,0.49-1.79,1.31-2.26l19.17-11.09v22.17v0
		c0,0.95-0.49,1.79-1.31,2.27c-0.8,0.46-1.74,0.47-2.55,0.03C80.97,104.23,80.96,104.22,80.94,104.21z M112.08,55.71l-0.02,0.06
		c-0.21,0.58-0.61,1.05-1.16,1.36c-0.83,0.47-1.82,0.47-2.65,0L91.81,47.7c-0.61-0.48-0.99-1.19-1.02-1.92
		c0-0.03-0.01-0.05-0.01-0.08c-0.01-0.15-0.02-0.29-0.04-0.44c-0.01-0.04-0.01-0.08-0.02-0.12c-0.03-0.17-0.07-0.34-0.11-0.5
		c0-0.01-0.01-0.02-0.01-0.04c-0.05-0.18-0.12-0.36-0.19-0.53c-0.01-0.03-0.03-0.07-0.05-0.1c-0.06-0.12-0.12-0.25-0.19-0.36
		c-0.02-0.03-0.03-0.06-0.04-0.09c-0.02-0.03-0.04-0.07-0.08-0.11c-0.38-0.59-0.89-1.09-1.48-1.46c-0.65-0.8-1.01-1.78-1.01-2.82
		V27.22h0V16.99l11.54,6.67c0.08,0.05,0.17,0.08,0.25,0.11l5.68,3.28c4.35,2.51,7.05,7.19,7.05,12.21V55.71z M59.07,28.78
		L34.6,14.64L52.01,4.59c4.35-2.51,9.75-2.51,14.1,0l17.41,10.05L59.07,28.78z M52.43,90.86c0.02,0.01,0.04,0.02,0.07,0.04
		c0.78,0.48,1.25,1.31,1.25,2.23c0,0.95-0.49,1.79-1.31,2.26l-6.75,3.9l-1.36,0.78l0,0l-8.03,4.64c-0.63,0.37-1.39,0.37-2.03,0
		c-0.63-0.36-1.01-1.01-1.01-1.74v-8.93h0l0-14.27L52.43,90.86z"/>
	
		<radialGradient id="SVGID_00000077317404622420008170000018308313958225486216_" cx="59.0791" cy="62.9134" r="61.0263" gradientUnits="userSpaceOnUse">
		<stop  offset="0.0784" style="stop-color:#872078;stop-opacity:0.8"/>
		<stop  offset="0.0799" style="stop-color:#872078;stop-opacity:0.7987"/>
		<stop  offset="0.1861" style="stop-color:#8E2F7F;stop-opacity:0.7065"/>
		<stop  offset="0.3174" style="stop-color:#933883;stop-opacity:0.5925"/>
		<stop  offset="0.5012" style="stop-color:#963E86;stop-opacity:0.433"/>
		<stop  offset="1" style="stop-color:#973F87;stop-opacity:0"/>
	</radialGradient>
	<path style="fill:url(#SVGID_00000077317404622420008170000018308313958225486216_);" d="M117.33,64.31
		c0.02-0.03,0.03-0.05,0.05-0.08c0.07-0.1,0.13-0.2,0.18-0.3c0.02-0.04,0.04-0.08,0.06-0.12c0.05-0.1,0.1-0.19,0.14-0.29
		c0.02-0.05,0.04-0.11,0.06-0.16c0.04-0.09,0.07-0.18,0.1-0.28c0.02-0.07,0.04-0.14,0.06-0.21c0.02-0.08,0.05-0.17,0.06-0.25
		c0.02-0.09,0.03-0.18,0.04-0.27c0.01-0.07,0.03-0.14,0.03-0.21c0.02-0.14,0.02-0.29,0.02-0.43c0-0.02,0-0.04,0-0.06c0,0,0,0,0,0
		c0,0,0,0,0,0c0-0.17-0.01-0.34-0.03-0.5c0-0.03-0.01-0.05-0.01-0.08c-0.02-0.14-0.04-0.28-0.07-0.41
		c-0.01-0.04-0.02-0.07-0.03-0.11c-0.03-0.12-0.06-0.24-0.1-0.36c-0.01-0.04-0.03-0.09-0.05-0.13c-0.04-0.11-0.08-0.22-0.13-0.32
		c-0.02-0.05-0.05-0.1-0.07-0.14c-0.05-0.1-0.1-0.19-0.15-0.29c-0.03-0.05-0.06-0.1-0.09-0.15c-0.06-0.09-0.12-0.18-0.18-0.26
		c-0.03-0.05-0.07-0.09-0.1-0.14c-0.07-0.09-0.14-0.17-0.22-0.25c-0.03-0.04-0.07-0.07-0.1-0.11c-0.09-0.1-0.19-0.19-0.3-0.28
		c-0.02-0.01-0.03-0.03-0.05-0.04c-0.79-0.67-1.33-1.58-1.56-2.6l0.01-0.04h-0.02c-0.07-0.33-0.11-0.68-0.11-1.03v-7.95h-0.04v-7.19
		c0-5.98-3.22-11.56-8.4-14.55L67.46,2.24c-5.18-2.99-11.62-2.99-16.8,0L11.74,24.72c-5.18,2.99-8.4,8.57-8.4,14.55v14.69h0v0.51
		c0,1.42-0.59,2.71-1.62,3.56C0.63,58.92,0,60.24,0,61.65s0.63,2.73,1.72,3.63c1.03,0.84,1.62,2.14,1.62,3.56v0.65h0v23.64
		c0,0.75,0.61,1.35,1.35,1.35s1.35-0.61,1.35-1.35V69.49V67.4c0-0.69,0.37-1.33,0.97-1.68c0.58-0.34,1.31-0.34,1.89,0l21.66,12.5
		l0,15.83h0v9.07c0,0.72-0.38,1.37-0.98,1.7c-0.11,0.06-0.22,0.13-0.33,0.2c-0.02,0.01-0.04,0.03-0.06,0.04
		c-0.1,0.07-0.2,0.15-0.3,0.22c-0.01,0.01-0.03,0.02-0.04,0.03c-0.22,0.19-0.43,0.39-0.62,0.62c0,0,0,0-0.01,0.01
		c-0.09,0.11-0.17,0.22-0.25,0.33c-0.01,0.02-0.02,0.03-0.03,0.05c-0.08,0.12-0.16,0.25-0.23,0.38c-0.05,0.1-0.1,0.2-0.14,0.3
		c-0.02,0.03-0.03,0.07-0.05,0.1c-0.04,0.09-0.07,0.19-0.1,0.28c-0.02,0.05-0.04,0.1-0.05,0.15c-0.02,0.06-0.03,0.12-0.04,0.17
		c-0.05,0.19-0.09,0.39-0.12,0.59c0,0.04-0.01,0.07-0.02,0.11c-0.01,0.11-0.02,0.22-0.02,0.33c0,0.04-0.01,0.08-0.01,0.12
		c0,0.02,0,0.05,0,0.07c0,0.09,0.01,0.19,0.01,0.28c0,0.03,0,0.06,0,0.09c0.01,0.13,0.03,0.25,0.05,0.38c0,0.02,0,0.03,0.01,0.05
		c0.02,0.13,0.05,0.26,0.08,0.38c0,0.01,0.01,0.02,0.01,0.04c0.03,0.13,0.07,0.25,0.12,0.37c0.01,0.02,0.01,0.04,0.02,0.06
		c0.04,0.11,0.09,0.22,0.14,0.33c0.02,0.03,0.03,0.07,0.05,0.1c0.04,0.09,0.09,0.18,0.14,0.26c0.03,0.06,0.07,0.11,0.1,0.16
		c0.04,0.06,0.08,0.13,0.12,0.19c0.05,0.08,0.11,0.15,0.17,0.22c0.03,0.04,0.06,0.08,0.09,0.12c0.07,0.09,0.15,0.17,0.22,0.25
		c0.02,0.02,0.05,0.05,0.07,0.07c0.08,0.08,0.17,0.16,0.26,0.23c0.03,0.02,0.05,0.05,0.08,0.07c0.08,0.07,0.17,0.13,0.26,0.19
		c0.04,0.03,0.08,0.06,0.12,0.08c0.02,0.02,0.05,0.03,0.07,0.05c0.21,0.13,0.43,0.25,0.66,0.35c0.02,0.01,0.04,0.02,0.06,0.03
		c0.12,0.05,0.24,0.09,0.36,0.13c0.01,0,0.03,0.01,0.04,0.01c0.29,0.09,0.59,0.15,0.89,0.18c0.01,0,0.01,0,0.02,0
		c0.15,0.02,0.31,0.03,0.46,0.03c0.05,0,0.1-0.01,0.14-0.01c0.13,0,0.26-0.01,0.38-0.02c0.05-0.01,0.11-0.02,0.16-0.02
		c0.13-0.02,0.26-0.04,0.38-0.07c0.02-0.01,0.04-0.01,0.07-0.01c0.04-0.01,0.08-0.02,0.11-0.03c0.09-0.02,0.17-0.05,0.25-0.08
		c0.07-0.03,0.15-0.05,0.22-0.08c0.06-0.02,0.12-0.05,0.19-0.08c0.09-0.04,0.19-0.09,0.28-0.13c0.03-0.02,0.07-0.04,0.1-0.06
		c0.11-0.06,0.22-0.13,0.32-0.19c0.01-0.01,0.03-0.02,0.04-0.03c0.12-0.08,0.23-0.16,0.33-0.25c0.01,0,0.01-0.01,0.02-0.01
		c0.11-0.09,0.21-0.19,0.31-0.29c0.01-0.01,0.02-0.02,0.03-0.03c0.09-0.09,0.18-0.19,0.27-0.29c0.02-0.02,0.04-0.05,0.06-0.07
		c0.07-0.09,0.14-0.18,0.2-0.27c0.03-0.05,0.06-0.1,0.09-0.14c0.04-0.06,0.08-0.11,0.11-0.17c0.02-0.03,0.03-0.06,0.04-0.08
		c0.01-0.02,0.02-0.04,0.03-0.06c0.06-0.11,0.11-0.22,0.16-0.33c0.01-0.02,0.02-0.04,0.03-0.06c0.05-0.12,0.09-0.24,0.13-0.37
		c0.01-0.04,0.02-0.08,0.04-0.12c0.03-0.1,0.05-0.19,0.08-0.29c0.01-0.04,0.02-0.07,0.03-0.11c0.02-0.12,0.04-0.25,0.06-0.38
		c0.01-0.05,0.01-0.09,0.01-0.14c0.01-0.1,0.01-0.2,0.02-0.3c0-0.03,0-0.06,0-0.09c0-0.01,0-0.02,0-0.03c0-0.73,0.37-1.4,0.98-1.75
		l10-5.77l-0.01-0.01l7.22-4.17c0.55-0.32,1.18-0.43,1.8-0.34c0.68,0.41,1.46,0.65,2.3,0.67c0.03,0,0.05,0,0.08,0
		c0.01,0,0.02,0,0.04,0c0.69,0,1.33-0.15,1.92-0.42c0,0,0,0,0,0c0.83-0.37,1.78-0.33,2.56,0.12l2.67,1.54l13.47,7.79
		c0.02,0.01,0.05,0.02,0.07,0.04c0.78,0.48,1.25,1.3,1.25,2.23c0,0.94-0.48,1.79-1.3,2.26l-0.15,0.08L58.28,123.3
		c-0.65,0.37-0.87,1.2-0.5,1.85c0.24,0.42,0.69,0.68,1.17,0.68c0.24,0,0.47-0.06,0.67-0.18l7.44-4.27c0.14-0.03,0.27-0.08,0.4-0.15
		l13.35-7.7c1.08-0.52,2.31-0.62,3.46-0.29c0.57,0.24,1.19,0.38,1.84,0.38c2.35,0,4.29-1.73,4.63-3.99c0.32-1.27,1.03-2.32,2.02-3
		l13.63-7.87c5.18-2.99,8.4-8.57,8.4-14.55V74.13h0.04v-5.22c0-1.43,0.61-2.77,1.68-3.67c0.21-0.18,0.4-0.38,0.57-0.58
		c0.01-0.01,0.02-0.02,0.03-0.04C117.18,64.52,117.25,64.41,117.33,64.31z M7.66,58.02c-1.03-0.84-1.62-2.14-1.62-3.56v-0.51V39.27
		c0-5.02,2.7-9.7,7.05-12.21l17.48-10.09l0,22.19c0,0.01,0,0.02,0,0.03v0.23c0,1.11-0.5,2.13-1.35,2.72
		c-1.25,0.88-1.99,2.31-1.99,3.84c0,1.52,0.74,2.96,1.99,3.84c0.84,0.59,1.35,1.61,1.35,2.72v0.36c0,0.01,0,0.02,0,0.03V75.1
		L10.32,63.42c-0.59-0.34-0.95-1-0.94-1.72l0-0.05C9.38,60.24,8.75,58.91,7.66,58.02z M4.69,60c0.44,0,0.84,0.17,1.16,0.48
		c0.41,0.41,0.57,0.97,0.44,1.55c-0.13,0.6-0.62,1.09-1.22,1.22h0c-0.57,0.13-1.14-0.03-1.55-0.44c-0.41-0.41-0.57-0.97-0.44-1.55
		c0.13-0.6,0.62-1.09,1.22-1.22C4.44,60.02,4.57,60,4.69,60z M60.46,93.49c-0.04,0.09-0.08,0.17-0.14,0.25
		c-0.01,0.01-0.02,0.03-0.03,0.04c-0.11,0.16-0.25,0.3-0.42,0.42c-0.01,0.01-0.02,0.01-0.03,0.02c-0.08,0.05-0.16,0.09-0.24,0.13
		c-0.01,0-0.02,0.01-0.03,0.01c-0.08,0.03-0.17,0.06-0.26,0.08c-0.03,0.01-0.06,0.01-0.09,0.02c-0.09,0.02-0.19,0.03-0.29,0.03
		c0,0,0,0,0,0c-0.11,0-0.21-0.01-0.31-0.03c-0.01,0-0.02,0-0.03-0.01c-0.1-0.02-0.19-0.05-0.29-0.09c-0.01,0-0.02-0.01-0.03-0.01
		c-0.08-0.04-0.16-0.08-0.24-0.13c-0.01-0.01-0.02-0.01-0.03-0.02c-0.43-0.3-0.72-0.79-0.72-1.36c0-0.11,0.01-0.22,0.03-0.33
		c0,0,0,0,0,0c0.02-0.1,0.05-0.2,0.09-0.3c0-0.01,0-0.01,0.01-0.02c0.04-0.09,0.09-0.18,0.14-0.26c0.01-0.01,0.01-0.02,0.02-0.02
		c0.12-0.17,0.26-0.31,0.43-0.43c0.01,0,0.01-0.01,0.02-0.01c0.08-0.05,0.17-0.1,0.26-0.14c0.01,0,0.01-0.01,0.02-0.01
		c0.08-0.04,0.17-0.06,0.27-0.08c0.03-0.01,0.06-0.01,0.08-0.02c0.09-0.02,0.19-0.03,0.29-0.03c0.11,0,0.22,0.01,0.33,0.03
		c0.01,0,0.01,0,0.02,0c0.1,0.02,0.19,0.05,0.28,0.09c0.03,0.01,0.06,0.03,0.09,0.04c0.06,0.03,0.13,0.06,0.19,0.1
		c0.03,0.02,0.05,0.04,0.08,0.06c0.31,0.24,0.54,0.58,0.63,0.97c0,0,0,0.01,0,0.01c0.02,0.11,0.03,0.21,0.03,0.33
		c0,0.11-0.01,0.22-0.03,0.32c0,0.01,0,0.01-0.01,0.02c-0.02,0.09-0.05,0.18-0.08,0.27C60.47,93.46,60.47,93.47,60.46,93.49z
		 M33.27,16.99l23.09,13.34L37.2,41.43c-0.82,0.47-1.8,0.47-2.62,0c-0.81-0.47-1.3-1.3-1.31-2.23v-8.42h0L33.27,16.99z
		 M111.95,61.01c0.04-0.09,0.09-0.18,0.14-0.26c0.01-0.01,0.01-0.02,0.02-0.03c0.11-0.16,0.25-0.3,0.42-0.42
		c0.02-0.01,0.03-0.02,0.05-0.03c0.07-0.04,0.14-0.08,0.21-0.12c0.02-0.01,0.04-0.02,0.05-0.03c0.08-0.03,0.17-0.06,0.25-0.08
		c0.04-0.01,0.08-0.01,0.12-0.02c0.05-0.01,0.1-0.01,0.15-0.02c0.03,0,0.07-0.01,0.1-0.01c0.44,0,0.84,0.17,1.16,0.48
		c0.02,0.02,0.04,0.05,0.07,0.07c0.03,0.04,0.07,0.08,0.1,0.12c0.02,0.03,0.04,0.06,0.06,0.09c0.05,0.07,0.09,0.15,0.12,0.23
		c0,0.01,0,0.01,0.01,0.02c0.04,0.09,0.06,0.17,0.08,0.27c0,0.02,0.01,0.04,0.01,0.06c0.02,0.1,0.03,0.19,0.03,0.29
		c0,0.01,0,0.03,0,0.04c0,0.1-0.01,0.2-0.03,0.3c0,0,0,0.01,0,0.01c-0.15,0.75-0.82,1.31-1.61,1.31c-0.79,0-1.45-0.56-1.61-1.31
		c0-0.01,0-0.01,0-0.02c-0.02-0.1-0.03-0.2-0.03-0.31c0-0.02,0-0.03,0-0.05c0-0.09,0.01-0.18,0.03-0.27c0-0.01,0-0.03,0.01-0.04
		C111.88,61.2,111.91,61.1,111.95,61.01C111.95,61.01,111.95,61.01,111.95,61.01z M69.3,66.09c-0.03-0.02-0.07-0.04-0.1-0.05
		c-1.52-0.92-2.43-2.51-2.43-4.3c0-1.81,0.94-3.44,2.51-4.35l11.65-6.74c0.4-0.23,0.86-0.36,1.31-0.36c0.45,0,0.9,0.12,1.31,0.35
		c0.82,0.47,1.31,1.32,1.31,2.27v22.16L69.3,66.09z M58.95,57.47c2.31,0,4.18,1.87,4.18,4.18c0,2.31-1.87,4.18-4.18,4.18
		c-2.31,0-4.18-1.87-4.18-4.18C54.77,59.34,56.64,57.47,58.95,57.47z M80.89,46.03c0,0.94-0.49,1.79-1.31,2.26l-11.64,6.73
		c-1.57,0.91-3.45,0.91-5.02,0c-1.57-0.91-2.51-2.53-2.51-4.35V32.7l19.16,11.07c0.02,0.01,0.04,0.02,0.07,0.04
		C80.42,44.29,80.89,45.11,80.89,46.03z M38.53,43.78l19.17-11.09v17.99v0.01c0,1.82-0.94,3.44-2.51,4.35
		c-1.54,0.89-3.37,0.9-4.92,0.05c-0.03-0.02-0.05-0.03-0.08-0.05l-11.64-6.73c-0.02-0.01-0.05-0.02-0.07-0.04
		c-0.78-0.48-1.25-1.3-1.25-2.23C37.23,45.1,37.72,44.26,38.53,43.78z M61.72,88.51c-0.82-0.47-1.31-1.32-1.31-2.27V72.79v-0.01
		c0-1.82,0.94-3.44,2.51-4.35c0.77-0.45,1.64-0.68,2.51-0.68c0.83,0,1.66,0.22,2.41,0.63c0.03,0.02,0.05,0.03,0.08,0.05l15.57,9
		L64.34,88.51C63.52,88.99,62.54,88.99,61.72,88.51z M106.73,63.99L87.56,75.09V52.92v0c0-0.95,0.49-1.79,1.31-2.27
		c0.4-0.23,0.85-0.36,1.31-0.36c0.38,0,0.76,0.09,1.11,0.26l8.15,4.7l0.01-0.01l7.3,4.22c0.82,0.47,1.31,1.32,1.31,2.26
		C108.04,62.68,107.55,63.52,106.73,63.99z M53.8,88.52L34.63,77.44l15.54-8.99c1.57-0.91,3.45-0.91,5.02,0
		c1.57,0.91,2.51,2.53,2.51,4.35v13.46v0c0,0.95-0.49,1.79-1.31,2.27c-0.8,0.46-1.75,0.47-2.55,0.03
		C53.83,88.54,53.81,88.53,53.8,88.52z M87.56,101.94V78.22l20.51-11.87c0.82-0.47,1.8-0.47,2.62,0c0.82,0.47,1.31,1.32,1.31,2.27
		v15.74c0,4.92-2.65,9.51-6.91,11.98l-13.6,7.87c-0.82,0.47-1.8,0.47-2.62,0C88.04,103.74,87.56,102.89,87.56,101.94z M31.92,44.33
		c0.44,0,0.84,0.17,1.16,0.48c0.41,0.41,0.57,0.97,0.44,1.55c-0.13,0.6-0.62,1.09-1.22,1.22c-0.57,0.13-1.14-0.03-1.55-0.44
		c-0.41-0.41-0.57-0.97-0.44-1.55c0.13-0.6,0.62-1.09,1.22-1.22C31.67,44.34,31.8,44.33,31.92,44.33z M33.27,58.45L33.27,58.45
		l0-5.57c0.01-0.93,0.5-1.77,1.31-2.23c0.4-0.23,0.85-0.36,1.31-0.36c0.43,0,0.86,0.11,1.24,0.32c0.02,0.01,0.04,0.02,0.06,0.03
		l11.64,6.73c0.03,0.02,0.07,0.04,0.1,0.05c1.52,0.92,2.43,2.51,2.43,4.3c0,1.81-0.94,3.44-2.51,4.35l-15.57,9.01V58.45z
		 M84.85,27.22v11.94c0,0.95-0.49,1.79-1.31,2.27c-0.8,0.46-1.75,0.47-2.55,0.03c-0.02-0.01-0.03-0.02-0.05-0.03L61.77,30.35
		l23.08-13.35V27.22z M80.94,104.21l-15.35-8.87c-0.76-0.48-1.22-1.3-1.22-2.21c0-0.95,0.49-1.79,1.31-2.26l19.17-11.09v22.17v0
		c0,0.95-0.49,1.79-1.31,2.27c-0.8,0.46-1.74,0.47-2.55,0.03C80.97,104.23,80.96,104.22,80.94,104.21z M112.08,55.71l-0.02,0.06
		c-0.21,0.58-0.61,1.05-1.16,1.36c-0.83,0.47-1.82,0.47-2.65,0L91.81,47.7c-0.61-0.48-0.99-1.19-1.02-1.92
		c0-0.03-0.01-0.05-0.01-0.08c-0.01-0.15-0.02-0.29-0.04-0.44c-0.01-0.04-0.01-0.08-0.02-0.12c-0.03-0.17-0.07-0.34-0.11-0.5
		c0-0.01-0.01-0.02-0.01-0.04c-0.05-0.18-0.12-0.36-0.19-0.53c-0.01-0.03-0.03-0.07-0.05-0.1c-0.06-0.12-0.12-0.25-0.19-0.36
		c-0.02-0.03-0.03-0.06-0.04-0.09c-0.02-0.03-0.04-0.07-0.08-0.11c-0.38-0.59-0.89-1.09-1.48-1.46c-0.65-0.8-1.01-1.78-1.01-2.82
		V27.22h0V16.99l11.54,6.67c0.08,0.05,0.17,0.08,0.25,0.11l5.68,3.28c4.35,2.51,7.05,7.19,7.05,12.21V55.71z M59.07,28.78
		L34.6,14.64L52.01,4.59c4.35-2.51,9.75-2.51,14.1,0l17.41,10.05L59.07,28.78z M52.43,90.86c0.02,0.01,0.04,0.02,0.07,0.04
		c0.78,0.48,1.25,1.31,1.25,2.23c0,0.95-0.49,1.79-1.31,2.26l-6.75,3.9l-1.36,0.78l0,0l-8.03,4.64c-0.63,0.37-1.39,0.37-2.03,0
		c-0.63-0.36-1.01-1.01-1.01-1.74v-8.93h0l0-14.27L52.43,90.86z"/>
</g>
</svg>
