<?xml version="1.0" encoding="UTF-8"?>
<svg width="205.78px" height="184.8625px" viewBox="0 0 205.78 184.8625" version="1.1" xmlns="http://www.w3.org/2000/svg" xmlns:xlink="http://www.w3.org/1999/xlink">
    <title>logo-white</title>
    <defs>
        <linearGradient x1="23.1250829%" y1="93.6669249%" x2="65.8720619%" y2="22.6956643%" id="linearGradient-1">
            <stop stop-color="#FFFFFF" offset="0%"></stop>
            <stop stop-color="#FFFFFF" offset="12.13%"></stop>
            <stop stop-color="#FFFFFF" offset="30.57%"></stop>
            <stop stop-color="#FFFFFF" offset="53.02%"></stop>
            <stop stop-color="#FFFFFF" offset="78.39%"></stop>
            <stop stop-color="#FFFFFF" offset="100%"></stop>
        </linearGradient>
        <radialGradient cx="50.0140523%" cy="49.9838308%" fx="50.0140523%" fy="49.9838308%" r="51.6602895%" gradientTransform="translate(0.500141,0.499838),scale(1.000000,0.938489),translate(-0.500141,-0.499838)" id="radialGradient-2">
            <stop stop-color="#FFFFFF" stop-opacity="0.8" offset="7.84%"></stop>
            <stop stop-color="#FFFFFF" stop-opacity="0.7987" offset="7.99%"></stop>
            <stop stop-color="#FFFFFF" stop-opacity="0.7065" offset="18.61%"></stop>
            <stop stop-color="#FFFFFF" stop-opacity="0.5925" offset="31.74%"></stop>
            <stop stop-color="#FFFFFF" stop-opacity="0.433" offset="50.12%"></stop>
            <stop stop-color="#FFFFFF" stop-opacity="0" offset="100%"></stop>
        </radialGradient>
    </defs>
    <g id="Page-3" stroke="none" stroke-width="1" fill="none" fill-rule="evenodd">
        <g id="logo-white" fill-rule="nonzero">
            <g id="Group" transform="translate(43.670000, 0.000000)">
                <path d="M117.33,64.3125 C117.35,64.2825 117.36,64.2625 117.38,64.2325 C117.45,64.1325 117.51,64.0325 117.56,63.9325 C117.58,63.8925 117.6,63.8525 117.62,63.8125 C117.67,63.7125 117.72,63.6225 117.76,63.5225 C117.78,63.4725 117.8,63.4125 117.82,63.3625 C117.86,63.2725 117.89,63.1825 117.92,63.0825 C117.94,63.0125 117.96,62.9425 117.98,62.8725 C118,62.7925 118.03,62.7025 118.04,62.6225 C118.06,62.5325 118.07,62.4425 118.08,62.3525 C118.09,62.2825 118.11,62.2125 118.11,62.1425 C118.13,62.0025 118.13,61.8525 118.13,61.7125 C118.13,61.6925 118.13,61.6725 118.13,61.6525 C118.13,61.6525 118.13,61.6525 118.13,61.6525 C118.13,61.6525 118.13,61.6525 118.13,61.6525 C118.13,61.4825 118.12,61.3125 118.1,61.1525 C118.1,61.1225 118.09,61.1025 118.09,61.0725 C118.07,60.9325 118.05,60.7925 118.02,60.6625 C118.01,60.6225 118,60.5925 117.99,60.5525 C117.96,60.4325 117.93,60.3125 117.89,60.1925 C117.88,60.1525 117.86,60.1025 117.84,60.0625 C117.8,59.9525 117.76,59.8425 117.71,59.7425 C117.69,59.6925 117.66,59.6425 117.64,59.6025 C117.59,59.5025 117.54,59.4125 117.49,59.3125 C117.46,59.2625 117.43,59.2125 117.4,59.1625 C117.34,59.0725 117.28,58.9825 117.22,58.9025 C117.19,58.8525 117.15,58.8125 117.12,58.7625 C117.05,58.6725 116.98,58.5925 116.9,58.5125 C116.87,58.4725 116.83,58.4425 116.8,58.4025 C116.71,58.3025 116.61,58.2125 116.5,58.1225 C116.48,58.1125 116.47,58.0925 116.45,58.0825 C115.66,57.4125 115.12,56.5025 114.89,55.4825 L114.9,55.4425 L114.88,55.4425 C114.81,55.1125 114.77,54.7625 114.77,54.4125 L114.77,46.4625 L114.73,46.4625 L114.73,39.2725 C114.73,33.2925 111.51,27.7125 106.33,24.7225 L67.46,2.2425 C62.28,-0.7475 55.84,-0.7475 50.66,2.2425 L11.74,24.7225 C6.56,27.7125 3.34,33.2925 3.34,39.2725 L3.34,53.9625 L3.34,53.9625 L3.34,54.4725 C3.34,55.8925 2.75,57.1825 1.72,58.0325 C0.63,58.9325 0,60.2525 0,61.6625 C0,63.0725 0.63,64.3925 1.72,65.2925 C2.75,66.1325 3.34,67.4325 3.34,68.8525 L3.34,69.5025 L3.34,69.5025 L3.34,93.1425 C3.34,93.8925 3.95,94.4925 4.69,94.4925 C5.43,94.4925 6.04,93.8825 6.04,93.1425 L6.04,69.4925 L6.04,67.4025 C6.04,66.7125 6.41,66.0725 7.01,65.7225 C7.59,65.3825 8.32,65.3825 8.9,65.7225 L30.56,78.2225 L30.56,94.0525 L30.56,94.0525 L30.56,103.1225 C30.56,103.8425 30.18,104.4925 29.58,104.8225 C29.47,104.8825 29.36,104.9525 29.25,105.0225 C29.23,105.0325 29.21,105.0525 29.19,105.0625 C29.09,105.1325 28.99,105.2125 28.89,105.2825 C28.88,105.2925 28.86,105.3025 28.85,105.3125 C28.63,105.5025 28.42,105.7025 28.23,105.9325 C28.23,105.9325 28.23,105.9325 28.22,105.9425 C28.13,106.0525 28.05,106.1625 27.97,106.2725 C27.96,106.2925 27.95,106.3025 27.94,106.3225 C27.86,106.4425 27.78,106.5725 27.71,106.7025 C27.66,106.8025 27.61,106.9025 27.57,107.0025 C27.55,107.0325 27.54,107.0725 27.52,107.1025 C27.48,107.1925 27.45,107.2925 27.42,107.3825 C27.4,107.4325 27.38,107.4825 27.37,107.5325 C27.35,107.5925 27.34,107.6525 27.33,107.7025 C27.28,107.8925 27.24,108.0925 27.21,108.2925 C27.21,108.3325 27.2,108.3625 27.19,108.4025 C27.18,108.5125 27.17,108.6225 27.17,108.7325 C27.17,108.7725 27.16,108.8125 27.16,108.8525 C27.16,108.8725 27.16,108.9025 27.16,108.9225 C27.16,109.0125 27.17,109.1125 27.17,109.2025 C27.17,109.2325 27.17,109.2625 27.17,109.2925 C27.18,109.4225 27.2,109.5425 27.22,109.6725 C27.22,109.6925 27.22,109.7025 27.23,109.7225 C27.25,109.8525 27.28,109.9825 27.31,110.1025 C27.31,110.1125 27.32,110.1225 27.32,110.1425 C27.35,110.2725 27.39,110.3925 27.44,110.5125 C27.45,110.5325 27.45,110.5525 27.46,110.5725 C27.5,110.6825 27.55,110.7925 27.6,110.9025 C27.62,110.9325 27.63,110.9725 27.65,111.0025 C27.69,111.0925 27.74,111.1825 27.79,111.2625 C27.82,111.3225 27.86,111.3725 27.89,111.4225 C27.93,111.4825 27.97,111.5525 28.01,111.6125 C28.06,111.6925 28.12,111.7625 28.18,111.8325 C28.21,111.8725 28.24,111.9125 28.27,111.9525 C28.34,112.0425 28.42,112.1225 28.49,112.2025 C28.51,112.2225 28.54,112.2525 28.56,112.2725 C28.64,112.3525 28.73,112.4325 28.82,112.5025 C28.85,112.5225 28.87,112.5525 28.9,112.5725 C28.98,112.6425 29.07,112.7025 29.16,112.7625 C29.2,112.7925 29.24,112.8225 29.28,112.8425 C29.3,112.8625 29.33,112.8725 29.35,112.8925 C29.56,113.0225 29.78,113.1425 30.01,113.2425 C30.03,113.2525 30.05,113.2625 30.07,113.2725 C30.19,113.3225 30.31,113.3625 30.43,113.4025 C30.44,113.4025 30.46,113.4125 30.47,113.4125 C30.76,113.5025 31.06,113.5625 31.36,113.5925 C31.37,113.5925 31.37,113.5925 31.38,113.5925 C31.53,113.6125 31.69,113.6225 31.84,113.6225 C31.89,113.6225 31.94,113.6125 31.98,113.6125 C32.11,113.6125 32.24,113.6025 32.36,113.5925 C32.41,113.5825 32.47,113.5725 32.52,113.5725 C32.65,113.5525 32.78,113.5325 32.9,113.5025 C32.92,113.4925 32.94,113.4925 32.97,113.4925 C33.01,113.4825 33.05,113.4725 33.08,113.4625 C33.17,113.4425 33.25,113.4125 33.33,113.3825 C33.4,113.3525 33.48,113.3325 33.55,113.3025 C33.61,113.2825 33.67,113.2525 33.74,113.2225 C33.83,113.1825 33.93,113.1325 34.02,113.0925 C34.05,113.0725 34.09,113.0525 34.12,113.0325 C34.23,112.9725 34.34,112.9025 34.44,112.8425 C34.45,112.8325 34.47,112.8225 34.48,112.8125 C34.6,112.7325 34.71,112.6525 34.81,112.5625 C34.82,112.5625 34.82,112.5525 34.83,112.5525 C34.94,112.4625 35.04,112.3625 35.14,112.2625 C35.15,112.2525 35.16,112.2425 35.17,112.2325 C35.26,112.1425 35.35,112.0425 35.44,111.9425 C35.46,111.9225 35.48,111.8925 35.5,111.8725 C35.57,111.7825 35.64,111.6925 35.7,111.6025 C35.73,111.5525 35.76,111.5025 35.79,111.4625 C35.83,111.4025 35.87,111.3525 35.9,111.2925 C35.92,111.2625 35.93,111.2325 35.94,111.2125 C35.95,111.1925 35.96,111.1725 35.97,111.1525 C36.03,111.0425 36.08,110.9325 36.13,110.8225 C36.14,110.8025 36.15,110.7825 36.16,110.7625 C36.21,110.6425 36.25,110.5225 36.29,110.3925 C36.3,110.3525 36.31,110.3125 36.33,110.2725 C36.36,110.1725 36.38,110.0825 36.41,109.9825 C36.42,109.9425 36.43,109.9125 36.44,109.8725 C36.46,109.7525 36.48,109.6225 36.5,109.4925 C36.51,109.4425 36.51,109.4025 36.51,109.3525 C36.52,109.2525 36.52,109.1525 36.53,109.0525 C36.53,109.0225 36.53,108.9925 36.53,108.9625 C36.53,108.9525 36.53,108.9425 36.53,108.9325 C36.53,108.2025 36.9,107.5325 37.51,107.1825 L47.51,101.4125 L47.5,101.4025 L54.72,97.2325 C55.27,96.9125 55.9,96.8025 56.52,96.8925 C57.2,97.3025 57.98,97.5425 58.82,97.5625 C58.85,97.5625 58.87,97.5625 58.9,97.5625 C58.91,97.5625 58.92,97.5625 58.94,97.5625 C59.63,97.5625 60.27,97.4125 60.86,97.1425 C60.86,97.1425 60.86,97.1425 60.86,97.1425 C61.69,96.7725 62.64,96.8125 63.42,97.2625 L66.09,98.8025 L79.56,106.5925 C79.58,106.6025 79.61,106.6125 79.63,106.6325 C80.41,107.1125 80.88,107.9325 80.88,108.8625 C80.88,109.8025 80.4,110.6525 79.58,111.1225 L79.43,111.2025 L58.26,123.3425 C57.61,123.7125 57.39,124.5425 57.76,125.1925 C58,125.6125 58.45,125.8725 58.93,125.8725 C59.17,125.8725 59.4,125.8125 59.6,125.6925 L67.04,121.4225 C67.18,121.3925 67.31,121.3425 67.44,121.2725 L80.79,113.5725 C81.87,113.0525 83.1,112.9525 84.25,113.2825 C84.82,113.5225 85.44,113.6625 86.09,113.6625 C88.44,113.6625 90.38,111.9325 90.72,109.6725 C91.04,108.4025 91.75,107.3525 92.74,106.6725 L106.37,98.8025 C111.55,95.8125 114.77,90.2325 114.77,84.2525 L114.77,74.1325 L114.81,74.1325 L114.81,68.9125 C114.81,67.4825 115.42,66.1425 116.49,65.2425 C116.7,65.0625 116.89,64.8625 117.06,64.6625 C117.07,64.6525 117.08,64.6425 117.09,64.6225 C117.18,64.5225 117.26,64.4125 117.33,64.3125 Z M7.66,58.0225 C6.63,57.1825 6.04,55.8825 6.04,54.4625 L6.04,53.9525 L6.04,39.2725 C6.04,34.2525 8.74,29.5725 13.09,27.0625 L30.57,16.9725 L30.57,39.1625 C30.57,39.1725 30.57,39.1825 30.57,39.1925 L30.57,39.4225 C30.57,40.5325 30.07,41.5525 29.22,42.1425 C27.97,43.0225 27.23,44.4525 27.23,45.9825 C27.23,47.5025 27.97,48.9425 29.22,49.8225 C30.06,50.4125 30.57,51.4325 30.57,52.5425 L30.57,52.9025 C30.57,52.9125 30.57,52.9225 30.57,52.9325 L30.57,75.1025 L10.33,63.4225 C9.74,63.0825 9.38,62.4225 9.39,61.7025 L9.39,61.6525 C9.38,60.2425 8.76,58.9125 7.66,58.0225 Z M4.7,60.0025 C5.14,60.0025 5.54,60.1725 5.86,60.4825 C6.27,60.8925 6.43,61.4525 6.3,62.0325 C6.17,62.6325 5.68,63.1225 5.08,63.2525 L5.08,63.2525 C4.51,63.3825 3.94,63.2225 3.53,62.8125 C3.12,62.4025 2.96,61.8425 3.09,61.2625 C3.22,60.6625 3.71,60.1725 4.31,60.0425 C4.44,60.0225 4.57,60.0025 4.7,60.0025 Z M60.47,93.4925 C60.43,93.5825 60.39,93.6625 60.33,93.7425 C60.32,93.7525 60.31,93.7725 60.3,93.7825 C60.19,93.9425 60.05,94.0825 59.88,94.2025 C59.87,94.2125 59.86,94.2125 59.85,94.2225 C59.77,94.2725 59.69,94.3125 59.61,94.3525 C59.6,94.3525 59.59,94.3625 59.58,94.3625 C59.5,94.3925 59.41,94.4225 59.32,94.4425 C59.29,94.4525 59.26,94.4525 59.23,94.4625 C59.14,94.4825 59.04,94.4925 58.94,94.4925 C58.94,94.4925 58.94,94.4925 58.94,94.4925 C58.83,94.4925 58.73,94.4825 58.63,94.4625 C58.62,94.4625 58.61,94.4625 58.6,94.4525 C58.5,94.4325 58.41,94.4025 58.31,94.3625 C58.3,94.3625 58.29,94.3525 58.28,94.3525 C58.2,94.3125 58.12,94.2725 58.04,94.2225 C58.03,94.2125 58.02,94.2125 58.01,94.2025 C57.58,93.9025 57.29,93.4125 57.29,92.8425 C57.29,92.7325 57.3,92.6225 57.32,92.5125 C57.32,92.5125 57.32,92.5125 57.32,92.5125 C57.34,92.4125 57.37,92.3125 57.41,92.2125 C57.41,92.2025 57.41,92.2025 57.42,92.1925 C57.46,92.1025 57.51,92.0125 57.56,91.9325 C57.57,91.9225 57.57,91.9125 57.58,91.9125 C57.7,91.7425 57.84,91.6025 58.01,91.4825 C58.02,91.4825 58.02,91.4725 58.03,91.4725 C58.11,91.4225 58.2,91.3725 58.29,91.3325 C58.3,91.3325 58.3,91.3225 58.31,91.3225 C58.39,91.2825 58.48,91.2625 58.58,91.2425 C58.61,91.2325 58.64,91.2325 58.66,91.2225 C58.75,91.2025 58.85,91.1925 58.95,91.1925 C59.06,91.1925 59.17,91.2025 59.28,91.2225 C59.29,91.2225 59.29,91.2225 59.3,91.2225 C59.4,91.2425 59.49,91.2725 59.58,91.3125 C59.61,91.3225 59.64,91.3425 59.67,91.3525 C59.73,91.3825 59.8,91.4125 59.86,91.4525 C59.89,91.4725 59.91,91.4925 59.94,91.5125 C60.25,91.7525 60.48,92.0925 60.57,92.4825 C60.57,92.4825 60.57,92.4925 60.57,92.4925 C60.59,92.6025 60.6,92.7025 60.6,92.8225 C60.6,92.9325 60.59,93.0425 60.57,93.1425 C60.57,93.1525 60.57,93.1525 60.56,93.1625 C60.54,93.2525 60.51,93.3425 60.48,93.4325 C60.47,93.4625 60.47,93.4725 60.47,93.4925 Z M33.27,16.9925 L56.36,30.3325 L37.2,41.4325 C36.38,41.9025 35.4,41.9025 34.58,41.4325 C33.77,40.9625 33.28,40.1325 33.27,39.2025 L33.27,30.7825 L33.27,30.7825 L33.27,16.9925 Z M111.95,61.0125 C111.99,60.9225 112.04,60.8325 112.09,60.7525 C112.1,60.7425 112.1,60.7325 112.11,60.7225 C112.22,60.5625 112.36,60.4225 112.53,60.3025 C112.55,60.2925 112.56,60.2825 112.58,60.2725 C112.65,60.2325 112.72,60.1925 112.79,60.1525 C112.81,60.1425 112.83,60.1325 112.84,60.1225 C112.92,60.0925 113.01,60.0625 113.09,60.0425 C113.13,60.0325 113.17,60.0325 113.21,60.0225 C113.26,60.0125 113.31,60.0125 113.36,60.0025 C113.39,60.0025 113.43,59.9925 113.46,59.9925 C113.9,59.9925 114.3,60.1625 114.62,60.4725 C114.64,60.4925 114.66,60.5225 114.69,60.5425 C114.72,60.5825 114.76,60.6225 114.79,60.6625 C114.81,60.6925 114.83,60.7225 114.85,60.7525 C114.9,60.8225 114.94,60.9025 114.97,60.9825 C114.97,60.9925 114.97,60.9925 114.98,61.0025 C115.02,61.0925 115.04,61.1725 115.06,61.2725 C115.06,61.2925 115.07,61.3125 115.07,61.3325 C115.09,61.4325 115.1,61.5225 115.1,61.6225 C115.1,61.6325 115.1,61.6525 115.1,61.6625 C115.1,61.7625 115.09,61.8625 115.07,61.9625 C115.07,61.9625 115.07,61.9725 115.07,61.9725 C114.92,62.7225 114.25,63.2825 113.46,63.2825 C112.67,63.2825 112.01,62.7225 111.85,61.9725 C111.85,61.9625 111.85,61.9625 111.85,61.9525 C111.83,61.8525 111.82,61.7525 111.82,61.6425 C111.82,61.6225 111.82,61.6125 111.82,61.5925 C111.82,61.5025 111.83,61.4125 111.85,61.3225 C111.85,61.3125 111.85,61.2925 111.86,61.2825 C111.88,61.2025 111.91,61.1025 111.95,61.0125 C111.95,61.0125 111.95,61.0125 111.95,61.0125 Z M69.31,66.0925 C69.28,66.0725 69.24,66.0525 69.21,66.0425 C67.69,65.1225 66.78,63.5325 66.78,61.7425 C66.78,59.9325 67.72,58.3025 69.29,57.3925 L80.94,50.6525 C81.34,50.4225 81.8,50.2925 82.25,50.2925 C82.7,50.2925 83.15,50.4125 83.56,50.6425 C84.38,51.1125 84.87,51.9625 84.87,52.9125 L84.87,75.0725 L69.31,66.0925 Z M58.95,57.4725 C61.26,57.4725 63.13,59.3425 63.13,61.6525 C63.13,63.9625 61.26,65.8325 58.95,65.8325 C56.64,65.8325 54.77,63.9625 54.77,61.6525 C54.77,59.3425 56.64,57.4725 58.95,57.4725 Z M80.9,46.0325 C80.9,46.9725 80.41,47.8225 79.59,48.2925 L67.95,55.0225 C66.38,55.9325 64.5,55.9325 62.93,55.0225 C61.36,54.1125 60.42,52.4925 60.42,50.6725 L60.42,32.7025 L79.58,43.7725 C79.6,43.7825 79.62,43.7925 79.65,43.8125 C80.43,44.2925 80.9,45.1125 80.9,46.0325 Z M38.54,43.7825 L57.71,32.6925 L57.71,50.6825 L57.71,50.6925 C57.71,52.5125 56.77,54.1325 55.2,55.0425 C53.66,55.9325 51.83,55.9425 50.28,55.0925 C50.25,55.0725 50.23,55.0625 50.2,55.0425 L38.56,48.3125 C38.54,48.3025 38.51,48.2925 38.49,48.2725 C37.71,47.7925 37.2397041,46.9725 37.2397041,46.0425 C37.23,45.1025 37.72,44.2625 38.54,43.7825 Z M61.72,88.5125 C60.9,88.0425 60.41,87.1925 60.41,86.2425 L60.41,72.7925 L60.41,72.7825 C60.41,70.9625 61.35,69.3425 62.92,68.4325 C63.69,67.9825 64.56,67.7525 65.43,67.7525 C66.26,67.7525 67.09,67.9725 67.84,68.3825 C67.87,68.4025 67.89,68.4125 67.92,68.4325 L83.49,77.4325 L64.33,88.5125 C63.52,88.9925 62.54,88.9925 61.72,88.5125 Z M106.73,63.9925 L87.56,75.0825 L87.56,52.9225 L87.56,52.9225 C87.56,51.9725 88.05,51.1325 88.87,50.6525 C89.27,50.4225 89.72,50.2925 90.18,50.2925 C90.56,50.2925 90.94,50.3825 91.29,50.5525 L99.44,55.2525 L99.45,55.2425 L106.75,59.4625 C107.57,59.9325 108.06,60.7825 108.06,61.7225 C108.04,62.6825 107.55,63.5225 106.73,63.9925 Z M53.8,88.5225 L34.63,77.4425 L50.17,68.4525 C51.74,67.5425 53.62,67.5425 55.19,68.4525 C56.76,69.3625 57.7,70.9825 57.7,72.8025 L57.7,86.2625 L57.7,86.2625 C57.7,87.2125 57.21,88.0525 56.39,88.5325 C55.59,88.9925 54.64,89.0025 53.84,88.5625 C53.83,88.5425 53.82,88.5325 53.8,88.5225 Z M87.56,101.9425 L87.56,78.2225 L108.07,66.3525 C108.89,65.8825 109.87,65.8825 110.69,66.3525 C111.51,66.8225 112,67.6725 112,68.6225 L112,84.3625 C112,89.2825 109.35,93.8725 105.09,96.3425 L91.49,104.2125 C90.67,104.6825 89.69,104.6825 88.87,104.2125 C88.05,103.7425 87.56,102.8925 87.56,101.9425 Z M31.93,44.3325 C32.37,44.3325 32.77,44.5025 33.09,44.8125 C33.5,45.2225 33.66,45.7825 33.53,46.3625 C33.4,46.9625 32.91,47.4525 32.31,47.5825 C31.74,47.7125 31.17,47.5525 30.76,47.1425 C30.35,46.7325 30.19,46.1725 30.32,45.5925 C30.45,44.9925 30.94,44.5025 31.54,44.3725 C31.67,44.3425 31.8,44.3325 31.93,44.3325 Z M33.27,58.4525 L33.27,58.4525 L33.27,52.8825 C33.28,51.9525 33.77,51.1125 34.58,50.6525 C34.98,50.4225 35.43,50.2925 35.89,50.2925 C36.32,50.2925 36.75,50.4025 37.13,50.6125 C37.15,50.6225 37.17,50.6325 37.19,50.6425 L48.83,57.3725 C48.86,57.3925 48.9,57.4125 48.93,57.4225 C50.45,58.3425 51.36,59.9325 51.36,61.7225 C51.36,63.5325 50.42,65.1625 48.85,66.0725 L33.28,75.0825 L33.28,58.4525 L33.27,58.4525 Z M84.85,27.2225 L84.85,39.1625 C84.85,40.1125 84.36,40.9525 83.54,41.4325 C82.74,41.8925 81.79,41.9025 80.99,41.4625 C80.97,41.4525 80.96,41.4425 80.94,41.4325 L61.77,30.3525 L84.85,17.0025 L84.85,27.2225 Z M80.94,104.2125 L65.59,95.3425 C64.83,94.8625 64.37,94.0425 64.37,93.1325 C64.37,92.1825 64.86,91.3425 65.68,90.8725 L84.85,79.7825 L84.85,101.9525 L84.85,101.9525 C84.85,102.9025 84.36,103.7425 83.54,104.2225 C82.74,104.6825 81.8,104.6925 80.99,104.2525 C80.98,104.2325 80.96,104.2225 80.94,104.2125 Z M112.08,55.7125 L112.06,55.7725 C111.85,56.3525 111.45,56.8225 110.9,57.1325 C110.07,57.6025 109.08,57.6025 108.25,57.1325 L91.8,47.7025 C91.19,47.2225 90.81,46.5125 90.78,45.7825 C90.78,45.7525 90.77,45.7325 90.77,45.7025 C90.76,45.5525 90.75,45.4125 90.73,45.2625 C90.72,45.2225 90.72,45.1825 90.71,45.1425 C90.68,44.9725 90.64,44.8025 90.6,44.6425 C90.6,44.6325 90.59,44.6225 90.59,44.6025 C90.54,44.4225 90.47,44.2425 90.4,44.0725 C90.39,44.0425 90.37,44.0025 90.35,43.9725 C90.29,43.8525 90.23,43.7225 90.16,43.6125 C90.14,43.5825 90.13,43.5525 90.12,43.5225 C90.1,43.4925 90.08,43.4525 90.04,43.4125 C89.66,42.8225 89.15,42.3225 88.56,41.9525 C87.91,41.1525 87.55,40.1725 87.55,39.1325 L87.55,27.2225 L87.55,27.2225 L87.55,16.9925 L99.09,23.6625 C99.17,23.7125 99.26,23.7425 99.34,23.7725 L105.02,27.0525 C109.37,29.5625 112.07,34.2425 112.07,39.2625 L112.07,55.7125 L112.08,55.7125 Z M59.08,28.7825 L34.6,14.6425 L52.02,4.5925 C56.37,2.0825 61.77,2.0825 66.12,4.5925 L83.53,14.6425 L59.08,28.7825 Z M52.43,90.8625 C52.45,90.8725 52.47,90.8825 52.5,90.9025 C53.28,91.3825 53.75,92.2125 53.75,93.1325 C53.75,94.0825 53.26,94.9225 52.44,95.3925 L45.69,99.2925 L44.33,100.0725 L44.33,100.0725 L36.32,104.7225 C35.69,105.0925 34.93,105.0925 34.29,104.7225 C33.66,104.3625 33.28,103.7125 33.28,102.9825 L33.28,94.0525 L33.28,94.0525 L33.28,79.7825 L52.43,90.8625 Z" id="Shape" fill="url(#linearGradient-1)"></path>
                <path d="M117.33,64.3125 C117.35,64.2825 117.36,64.2625 117.38,64.2325 C117.45,64.1325 117.51,64.0325 117.56,63.9325 C117.58,63.8925 117.6,63.8525 117.62,63.8125 C117.67,63.7125 117.72,63.6225 117.76,63.5225 C117.78,63.4725 117.8,63.4125 117.82,63.3625 C117.86,63.2725 117.89,63.1825 117.92,63.0825 C117.94,63.0125 117.96,62.9425 117.98,62.8725 C118,62.7925 118.03,62.7025 118.04,62.6225 C118.06,62.5325 118.07,62.4425 118.08,62.3525 C118.09,62.2825 118.11,62.2125 118.11,62.1425 C118.13,62.0025 118.13,61.8525 118.13,61.7125 C118.13,61.6925 118.13,61.6725 118.13,61.6525 C118.13,61.6525 118.13,61.6525 118.13,61.6525 C118.13,61.6525 118.13,61.6525 118.13,61.6525 C118.13,61.4825 118.12,61.3125 118.1,61.1525 C118.1,61.1225 118.09,61.1025 118.09,61.0725 C118.07,60.9325 118.05,60.7925 118.02,60.6625 C118.01,60.6225 118,60.5925 117.99,60.5525 C117.96,60.4325 117.93,60.3125 117.89,60.1925 C117.88,60.1525 117.86,60.1025 117.84,60.0625 C117.8,59.9525 117.76,59.8425 117.71,59.7425 C117.69,59.6925 117.66,59.6425 117.64,59.6025 C117.59,59.5025 117.54,59.4125 117.49,59.3125 C117.46,59.2625 117.43,59.2125 117.4,59.1625 C117.34,59.0725 117.28,58.9825 117.22,58.9025 C117.19,58.8525 117.15,58.8125 117.12,58.7625 C117.05,58.6725 116.98,58.5925 116.9,58.5125 C116.87,58.4725 116.83,58.4425 116.8,58.4025 C116.71,58.3025 116.61,58.2125 116.5,58.1225 C116.48,58.1125 116.47,58.0925 116.45,58.0825 C115.66,57.4125 115.12,56.5025 114.89,55.4825 L114.9,55.4425 L114.88,55.4425 C114.81,55.1125 114.77,54.7625 114.77,54.4125 L114.77,46.4625 L114.73,46.4625 L114.73,39.2725 C114.73,33.2925 111.51,27.7125 106.33,24.7225 L67.46,2.2425 C62.28,-0.7475 55.84,-0.7475 50.66,2.2425 L11.74,24.7225 C6.56,27.7125 3.34,33.2925 3.34,39.2725 L3.34,53.9625 L3.34,53.9625 L3.34,54.4725 C3.34,55.8925 2.75,57.1825 1.72,58.0325 C0.63,58.9325 0,60.2525 0,61.6625 C0,63.0725 0.63,64.3925 1.72,65.2925 C2.75,66.1325 3.34,67.4325 3.34,68.8525 L3.34,69.5025 L3.34,69.5025 L3.34,93.1425 C3.34,93.8925 3.95,94.4925 4.69,94.4925 C5.43,94.4925 6.04,93.8825 6.04,93.1425 L6.04,69.4925 L6.04,67.4025 C6.04,66.7125 6.41,66.0725 7.01,65.7225 C7.59,65.3825 8.32,65.3825 8.9,65.7225 L30.56,78.2225 L30.56,94.0525 L30.56,94.0525 L30.56,103.1225 C30.56,103.8425 30.18,104.4925 29.58,104.8225 C29.47,104.8825 29.36,104.9525 29.25,105.0225 C29.23,105.0325 29.21,105.0525 29.19,105.0625 C29.09,105.1325 28.99,105.2125 28.89,105.2825 C28.88,105.2925 28.86,105.3025 28.85,105.3125 C28.63,105.5025 28.42,105.7025 28.23,105.9325 C28.23,105.9325 28.23,105.9325 28.22,105.9425 C28.13,106.0525 28.05,106.1625 27.97,106.2725 C27.96,106.2925 27.95,106.3025 27.94,106.3225 C27.86,106.4425 27.78,106.5725 27.71,106.7025 C27.66,106.8025 27.61,106.9025 27.57,107.0025 C27.55,107.0325 27.54,107.0725 27.52,107.1025 C27.48,107.1925 27.45,107.2925 27.42,107.3825 C27.4,107.4325 27.38,107.4825 27.37,107.5325 C27.35,107.5925 27.34,107.6525 27.33,107.7025 C27.28,107.8925 27.24,108.0925 27.21,108.2925 C27.21,108.3325 27.2,108.3625 27.19,108.4025 C27.18,108.5125 27.17,108.6225 27.17,108.7325 C27.17,108.7725 27.16,108.8125 27.16,108.8525 C27.16,108.8725 27.16,108.9025 27.16,108.9225 C27.16,109.0125 27.17,109.1125 27.17,109.2025 C27.17,109.2325 27.17,109.2625 27.17,109.2925 C27.18,109.4225 27.2,109.5425 27.22,109.6725 C27.22,109.6925 27.22,109.7025 27.23,109.7225 C27.25,109.8525 27.28,109.9825 27.31,110.1025 C27.31,110.1125 27.32,110.1225 27.32,110.1425 C27.35,110.2725 27.39,110.3925 27.44,110.5125 C27.45,110.5325 27.45,110.5525 27.46,110.5725 C27.5,110.6825 27.55,110.7925 27.6,110.9025 C27.62,110.9325 27.63,110.9725 27.65,111.0025 C27.69,111.0925 27.74,111.1825 27.79,111.2625 C27.82,111.3225 27.86,111.3725 27.89,111.4225 C27.93,111.4825 27.97,111.5525 28.01,111.6125 C28.06,111.6925 28.12,111.7625 28.18,111.8325 C28.21,111.8725 28.24,111.9125 28.27,111.9525 C28.34,112.0425 28.42,112.1225 28.49,112.2025 C28.51,112.2225 28.54,112.2525 28.56,112.2725 C28.64,112.3525 28.73,112.4325 28.82,112.5025 C28.85,112.5225 28.87,112.5525 28.9,112.5725 C28.98,112.6425 29.07,112.7025 29.16,112.7625 C29.2,112.7925 29.24,112.8225 29.28,112.8425 C29.3,112.8625 29.33,112.8725 29.35,112.8925 C29.56,113.0225 29.78,113.1425 30.01,113.2425 C30.03,113.2525 30.05,113.2625 30.07,113.2725 C30.19,113.3225 30.31,113.3625 30.43,113.4025 C30.44,113.4025 30.46,113.4125 30.47,113.4125 C30.76,113.5025 31.06,113.5625 31.36,113.5925 C31.37,113.5925 31.37,113.5925 31.38,113.5925 C31.53,113.6125 31.69,113.6225 31.84,113.6225 C31.89,113.6225 31.94,113.6125 31.98,113.6125 C32.11,113.6125 32.24,113.6025 32.36,113.5925 C32.41,113.5825 32.47,113.5725 32.52,113.5725 C32.65,113.5525 32.78,113.5325 32.9,113.5025 C32.92,113.4925 32.94,113.4925 32.97,113.4925 C33.01,113.4825 33.05,113.4725 33.08,113.4625 C33.17,113.4425 33.25,113.4125 33.33,113.3825 C33.4,113.3525 33.48,113.3325 33.55,113.3025 C33.61,113.2825 33.67,113.2525 33.74,113.2225 C33.83,113.1825 33.93,113.1325 34.02,113.0925 C34.05,113.0725 34.09,113.0525 34.12,113.0325 C34.23,112.9725 34.34,112.9025 34.44,112.8425 C34.45,112.8325 34.47,112.8225 34.48,112.8125 C34.6,112.7325 34.71,112.6525 34.81,112.5625 C34.82,112.5625 34.82,112.5525 34.83,112.5525 C34.94,112.4625 35.04,112.3625 35.14,112.2625 C35.15,112.2525 35.16,112.2425 35.17,112.2325 C35.26,112.1425 35.35,112.0425 35.44,111.9425 C35.46,111.9225 35.48,111.8925 35.5,111.8725 C35.57,111.7825 35.64,111.6925 35.7,111.6025 C35.73,111.5525 35.76,111.5025 35.79,111.4625 C35.83,111.4025 35.87,111.3525 35.9,111.2925 C35.92,111.2625 35.93,111.2325 35.94,111.2125 C35.95,111.1925 35.96,111.1725 35.97,111.1525 C36.03,111.0425 36.08,110.9325 36.13,110.8225 C36.14,110.8025 36.15,110.7825 36.16,110.7625 C36.21,110.6425 36.25,110.5225 36.29,110.3925 C36.3,110.3525 36.31,110.3125 36.33,110.2725 C36.36,110.1725 36.38,110.0825 36.41,109.9825 C36.42,109.9425 36.43,109.9125 36.44,109.8725 C36.46,109.7525 36.48,109.6225 36.5,109.4925 C36.51,109.4425 36.51,109.4025 36.51,109.3525 C36.52,109.2525 36.52,109.1525 36.53,109.0525 C36.53,109.0225 36.53,108.9925 36.53,108.9625 C36.53,108.9525 36.53,108.9425 36.53,108.9325 C36.53,108.2025 36.9,107.5325 37.51,107.1825 L47.51,101.4125 L47.5,101.4025 L54.72,97.2325 C55.27,96.9125 55.9,96.8025 56.52,96.8925 C57.2,97.3025 57.98,97.5425 58.82,97.5625 C58.85,97.5625 58.87,97.5625 58.9,97.5625 C58.91,97.5625 58.92,97.5625 58.94,97.5625 C59.63,97.5625 60.27,97.4125 60.86,97.1425 C60.86,97.1425 60.86,97.1425 60.86,97.1425 C61.69,96.7725 62.64,96.8125 63.42,97.2625 L66.09,98.8025 L79.56,106.5925 C79.58,106.6025 79.61,106.6125 79.63,106.6325 C80.41,107.1125 80.88,107.9325 80.88,108.8625 C80.88,109.8025 80.4,110.6525 79.58,111.1225 L79.43,111.2025 L58.26,123.3425 C57.61,123.7125 57.39,124.5425 57.76,125.1925 C58,125.6125 58.45,125.8725 58.93,125.8725 C59.17,125.8725 59.4,125.8125 59.6,125.6925 L67.04,121.4225 C67.18,121.3925 67.31,121.3425 67.44,121.2725 L80.79,113.5725 C81.87,113.0525 83.1,112.9525 84.25,113.2825 C84.82,113.5225 85.44,113.6625 86.09,113.6625 C88.44,113.6625 90.38,111.9325 90.72,109.6725 C91.04,108.4025 91.75,107.3525 92.74,106.6725 L106.37,98.8025 C111.55,95.8125 114.77,90.2325 114.77,84.2525 L114.77,74.1325 L114.81,74.1325 L114.81,68.9125 C114.81,67.4825 115.42,66.1425 116.49,65.2425 C116.7,65.0625 116.89,64.8625 117.06,64.6625 C117.07,64.6525 117.08,64.6425 117.09,64.6225 C117.18,64.5225 117.26,64.4125 117.33,64.3125 Z M7.66,58.0225 C6.63,57.1825 6.04,55.8825 6.04,54.4625 L6.04,53.9525 L6.04,39.2725 C6.04,34.2525 8.74,29.5725 13.09,27.0625 L30.57,16.9725 L30.57,39.1625 C30.57,39.1725 30.57,39.1825 30.57,39.1925 L30.57,39.4225 C30.57,40.5325 30.07,41.5525 29.22,42.1425 C27.97,43.0225 27.23,44.4525 27.23,45.9825 C27.23,47.5025 27.97,48.9425 29.22,49.8225 C30.06,50.4125 30.57,51.4325 30.57,52.5425 L30.57,52.9025 C30.57,52.9125 30.57,52.9225 30.57,52.9325 L30.57,75.1025 L10.33,63.4225 C9.74,63.0825 9.38,62.4225 9.39,61.7025 L9.39,61.6525 C9.38,60.2425 8.76,58.9125 7.66,58.0225 Z M4.7,60.0025 C5.14,60.0025 5.54,60.1725 5.86,60.4825 C6.27,60.8925 6.43,61.4525 6.3,62.0325 C6.17,62.6325 5.68,63.1225 5.08,63.2525 L5.08,63.2525 C4.51,63.3825 3.94,63.2225 3.53,62.8125 C3.12,62.4025 2.96,61.8425 3.09,61.2625 C3.22,60.6625 3.71,60.1725 4.31,60.0425 C4.44,60.0225 4.57,60.0025 4.7,60.0025 Z M60.47,93.4925 C60.43,93.5825 60.39,93.6625 60.33,93.7425 C60.32,93.7525 60.31,93.7725 60.3,93.7825 C60.19,93.9425 60.05,94.0825 59.88,94.2025 C59.87,94.2125 59.86,94.2125 59.85,94.2225 C59.77,94.2725 59.69,94.3125 59.61,94.3525 C59.6,94.3525 59.59,94.3625 59.58,94.3625 C59.5,94.3925 59.41,94.4225 59.32,94.4425 C59.29,94.4525 59.26,94.4525 59.23,94.4625 C59.14,94.4825 59.04,94.4925 58.94,94.4925 C58.94,94.4925 58.94,94.4925 58.94,94.4925 C58.83,94.4925 58.73,94.4825 58.63,94.4625 C58.62,94.4625 58.61,94.4625 58.6,94.4525 C58.5,94.4325 58.41,94.4025 58.31,94.3625 C58.3,94.3625 58.29,94.3525 58.28,94.3525 C58.2,94.3125 58.12,94.2725 58.04,94.2225 C58.03,94.2125 58.02,94.2125 58.01,94.2025 C57.58,93.9025 57.29,93.4125 57.29,92.8425 C57.29,92.7325 57.3,92.6225 57.32,92.5125 C57.32,92.5125 57.32,92.5125 57.32,92.5125 C57.34,92.4125 57.37,92.3125 57.41,92.2125 C57.41,92.2025 57.41,92.2025 57.42,92.1925 C57.46,92.1025 57.51,92.0125 57.56,91.9325 C57.57,91.9225 57.57,91.9125 57.58,91.9125 C57.7,91.7425 57.84,91.6025 58.01,91.4825 C58.02,91.4825 58.02,91.4725 58.03,91.4725 C58.11,91.4225 58.2,91.3725 58.29,91.3325 C58.3,91.3325 58.3,91.3225 58.31,91.3225 C58.39,91.2825 58.48,91.2625 58.58,91.2425 C58.61,91.2325 58.64,91.2325 58.66,91.2225 C58.75,91.2025 58.85,91.1925 58.95,91.1925 C59.06,91.1925 59.17,91.2025 59.28,91.2225 C59.29,91.2225 59.29,91.2225 59.3,91.2225 C59.4,91.2425 59.49,91.2725 59.58,91.3125 C59.61,91.3225 59.64,91.3425 59.67,91.3525 C59.73,91.3825 59.8,91.4125 59.86,91.4525 C59.89,91.4725 59.91,91.4925 59.94,91.5125 C60.25,91.7525 60.48,92.0925 60.57,92.4825 C60.57,92.4825 60.57,92.4925 60.57,92.4925 C60.59,92.6025 60.6,92.7025 60.6,92.8225 C60.6,92.9325 60.59,93.0425 60.57,93.1425 C60.57,93.1525 60.57,93.1525 60.56,93.1625 C60.54,93.2525 60.51,93.3425 60.48,93.4325 C60.47,93.4625 60.47,93.4725 60.47,93.4925 Z M33.27,16.9925 L56.36,30.3325 L37.2,41.4325 C36.38,41.9025 35.4,41.9025 34.58,41.4325 C33.77,40.9625 33.28,40.1325 33.27,39.2025 L33.27,30.7825 L33.27,30.7825 L33.27,16.9925 Z M111.95,61.0125 C111.99,60.9225 112.04,60.8325 112.09,60.7525 C112.1,60.7425 112.1,60.7325 112.11,60.7225 C112.22,60.5625 112.36,60.4225 112.53,60.3025 C112.55,60.2925 112.56,60.2825 112.58,60.2725 C112.65,60.2325 112.72,60.1925 112.79,60.1525 C112.81,60.1425 112.83,60.1325 112.84,60.1225 C112.92,60.0925 113.01,60.0625 113.09,60.0425 C113.13,60.0325 113.17,60.0325 113.21,60.0225 C113.26,60.0125 113.31,60.0125 113.36,60.0025 C113.39,60.0025 113.43,59.9925 113.46,59.9925 C113.9,59.9925 114.3,60.1625 114.62,60.4725 C114.64,60.4925 114.66,60.5225 114.69,60.5425 C114.72,60.5825 114.76,60.6225 114.79,60.6625 C114.81,60.6925 114.83,60.7225 114.85,60.7525 C114.9,60.8225 114.94,60.9025 114.97,60.9825 C114.97,60.9925 114.97,60.9925 114.98,61.0025 C115.02,61.0925 115.04,61.1725 115.06,61.2725 C115.06,61.2925 115.07,61.3125 115.07,61.3325 C115.09,61.4325 115.1,61.5225 115.1,61.6225 C115.1,61.6325 115.1,61.6525 115.1,61.6625 C115.1,61.7625 115.09,61.8625 115.07,61.9625 C115.07,61.9625 115.07,61.9725 115.07,61.9725 C114.92,62.7225 114.25,63.2825 113.46,63.2825 C112.67,63.2825 112.01,62.7225 111.85,61.9725 C111.85,61.9625 111.85,61.9625 111.85,61.9525 C111.83,61.8525 111.82,61.7525 111.82,61.6425 C111.82,61.6225 111.82,61.6125 111.82,61.5925 C111.82,61.5025 111.83,61.4125 111.85,61.3225 C111.85,61.3125 111.85,61.2925 111.86,61.2825 C111.88,61.2025 111.91,61.1025 111.95,61.0125 C111.95,61.0125 111.95,61.0125 111.95,61.0125 Z M69.31,66.0925 C69.28,66.0725 69.24,66.0525 69.21,66.0425 C67.69,65.1225 66.78,63.5325 66.78,61.7425 C66.78,59.9325 67.72,58.3025 69.29,57.3925 L80.94,50.6525 C81.34,50.4225 81.8,50.2925 82.25,50.2925 C82.7,50.2925 83.15,50.4125 83.56,50.6425 C84.38,51.1125 84.87,51.9625 84.87,52.9125 L84.87,75.0725 L69.31,66.0925 Z M58.95,57.4725 C61.26,57.4725 63.13,59.3425 63.13,61.6525 C63.13,63.9625 61.26,65.8325 58.95,65.8325 C56.64,65.8325 54.77,63.9625 54.77,61.6525 C54.77,59.3425 56.64,57.4725 58.95,57.4725 Z M80.9,46.0325 C80.9,46.9725 80.41,47.8225 79.59,48.2925 L67.95,55.0225 C66.38,55.9325 64.5,55.9325 62.93,55.0225 C61.36,54.1125 60.42,52.4925 60.42,50.6725 L60.42,32.7025 L79.58,43.7725 C79.6,43.7825 79.62,43.7925 79.65,43.8125 C80.43,44.2925 80.9,45.1125 80.9,46.0325 Z M38.54,43.7825 L57.71,32.6925 L57.71,50.6825 L57.71,50.6925 C57.71,52.5125 56.77,54.1325 55.2,55.0425 C53.66,55.9325 51.83,55.9425 50.28,55.0925 C50.25,55.0725 50.23,55.0625 50.2,55.0425 L38.56,48.3125 C38.54,48.3025 38.51,48.2925 38.49,48.2725 C37.71,47.7925 37.2397041,46.9725 37.2397041,46.0425 C37.23,45.1025 37.72,44.2625 38.54,43.7825 Z M61.72,88.5125 C60.9,88.0425 60.41,87.1925 60.41,86.2425 L60.41,72.7925 L60.41,72.7825 C60.41,70.9625 61.35,69.3425 62.92,68.4325 C63.69,67.9825 64.56,67.7525 65.43,67.7525 C66.26,67.7525 67.09,67.9725 67.84,68.3825 C67.87,68.4025 67.89,68.4125 67.92,68.4325 L83.49,77.4325 L64.33,88.5125 C63.52,88.9925 62.54,88.9925 61.72,88.5125 Z M106.73,63.9925 L87.56,75.0825 L87.56,52.9225 L87.56,52.9225 C87.56,51.9725 88.05,51.1325 88.87,50.6525 C89.27,50.4225 89.72,50.2925 90.18,50.2925 C90.56,50.2925 90.94,50.3825 91.29,50.5525 L99.44,55.2525 L99.45,55.2425 L106.75,59.4625 C107.57,59.9325 108.06,60.7825 108.06,61.7225 C108.04,62.6825 107.55,63.5225 106.73,63.9925 Z M53.8,88.5225 L34.63,77.4425 L50.17,68.4525 C51.74,67.5425 53.62,67.5425 55.19,68.4525 C56.76,69.3625 57.7,70.9825 57.7,72.8025 L57.7,86.2625 L57.7,86.2625 C57.7,87.2125 57.21,88.0525 56.39,88.5325 C55.59,88.9925 54.64,89.0025 53.84,88.5625 C53.83,88.5425 53.82,88.5325 53.8,88.5225 Z M87.56,101.9425 L87.56,78.2225 L108.07,66.3525 C108.89,65.8825 109.87,65.8825 110.69,66.3525 C111.51,66.8225 112,67.6725 112,68.6225 L112,84.3625 C112,89.2825 109.35,93.8725 105.09,96.3425 L91.49,104.2125 C90.67,104.6825 89.69,104.6825 88.87,104.2125 C88.05,103.7425 87.56,102.8925 87.56,101.9425 Z M31.93,44.3325 C32.37,44.3325 32.77,44.5025 33.09,44.8125 C33.5,45.2225 33.66,45.7825 33.53,46.3625 C33.4,46.9625 32.91,47.4525 32.31,47.5825 C31.74,47.7125 31.17,47.5525 30.76,47.1425 C30.35,46.7325 30.19,46.1725 30.32,45.5925 C30.45,44.9925 30.94,44.5025 31.54,44.3725 C31.67,44.3425 31.8,44.3325 31.93,44.3325 Z M33.27,58.4525 L33.27,58.4525 L33.27,52.8825 C33.28,51.9525 33.77,51.1125 34.58,50.6525 C34.98,50.4225 35.43,50.2925 35.89,50.2925 C36.32,50.2925 36.75,50.4025 37.13,50.6125 C37.15,50.6225 37.17,50.6325 37.19,50.6425 L48.83,57.3725 C48.86,57.3925 48.9,57.4125 48.93,57.4225 C50.45,58.3425 51.36,59.9325 51.36,61.7225 C51.36,63.5325 50.42,65.1625 48.85,66.0725 L33.28,75.0825 L33.28,58.4525 L33.27,58.4525 Z M84.85,27.2225 L84.85,39.1625 C84.85,40.1125 84.36,40.9525 83.54,41.4325 C82.74,41.8925 81.79,41.9025 80.99,41.4625 C80.97,41.4525 80.96,41.4425 80.94,41.4325 L61.77,30.3525 L84.85,17.0025 L84.85,27.2225 Z M80.94,104.2125 L65.59,95.3425 C64.83,94.8625 64.37,94.0425 64.37,93.1325 C64.37,92.1825 64.86,91.3425 65.68,90.8725 L84.85,79.7825 L84.85,101.9525 L84.85,101.9525 C84.85,102.9025 84.36,103.7425 83.54,104.2225 C82.74,104.6825 81.8,104.6925 80.99,104.2525 C80.98,104.2325 80.96,104.2225 80.94,104.2125 Z M112.08,55.7125 L112.06,55.7725 C111.85,56.3525 111.45,56.8225 110.9,57.1325 C110.07,57.6025 109.08,57.6025 108.25,57.1325 L91.8,47.7025 C91.19,47.2225 90.81,46.5125 90.78,45.7825 C90.78,45.7525 90.77,45.7325 90.77,45.7025 C90.76,45.5525 90.75,45.4125 90.73,45.2625 C90.72,45.2225 90.72,45.1825 90.71,45.1425 C90.68,44.9725 90.64,44.8025 90.6,44.6425 C90.6,44.6325 90.59,44.6225 90.59,44.6025 C90.54,44.4225 90.47,44.2425 90.4,44.0725 C90.39,44.0425 90.37,44.0025 90.35,43.9725 C90.29,43.8525 90.23,43.7225 90.16,43.6125 C90.14,43.5825 90.13,43.5525 90.12,43.5225 C90.1,43.4925 90.08,43.4525 90.04,43.4125 C89.66,42.8225 89.15,42.3225 88.56,41.9525 C87.91,41.1525 87.55,40.1725 87.55,39.1325 L87.55,27.2225 L87.55,27.2225 L87.55,16.9925 L99.09,23.6625 C99.17,23.7125 99.26,23.7425 99.34,23.7725 L105.02,27.0525 C109.37,29.5625 112.07,34.2425 112.07,39.2625 L112.07,55.7125 L112.08,55.7125 Z M59.08,28.7825 L34.6,14.6425 L52.02,4.5925 C56.37,2.0825 61.77,2.0825 66.12,4.5925 L83.53,14.6425 L59.08,28.7825 Z M52.43,90.8625 C52.45,90.8725 52.47,90.8825 52.5,90.9025 C53.28,91.3825 53.75,92.2125 53.75,93.1325 C53.75,94.0825 53.26,94.9225 52.44,95.3925 L45.69,99.2925 L44.33,100.0725 L44.33,100.0725 L36.32,104.7225 C35.69,105.0925 34.93,105.0925 34.29,104.7225 C33.66,104.3625 33.28,103.7125 33.28,102.9825 L33.28,94.0525 L33.28,94.0525 L33.28,79.7825 L52.43,90.8625 Z" id="Shape" fill="url(#radialGradient-2)"></path>
            </g>
            <g id="Group" transform="translate(0.000000, 149.152500)" fill="#EFF2FE">
                <path d="M12.53,35.71 C10.17,35.71 8.05,35.16 6.17,34.05 C4.29,32.94 2.8,31.45 1.7,29.55 C0.59,27.66 0.03,25.53 -5.99520433e-15,23.17 L-5.99520433e-15,1.95 C-5.99520433e-15,1.34 0.17,0.87 0.52,0.52 C0.87,0.17 1.34,0 1.95,0 C2.53,0 2.99,0.17 3.34,0.52 C3.69,0.87 3.86,1.35 3.86,1.95 L3.86,14.94 C4.86,13.58 6.16,12.48 7.77,11.65 C9.37,10.82 11.16,10.4 13.13,10.4 C15.43,10.4 17.49,10.95 19.31,12.06 C21.13,13.17 22.56,14.67 23.6,16.58 C24.64,18.49 25.17,20.64 25.17,23.03 C25.17,25.45 24.62,27.62 23.51,29.53 C22.4,31.44 20.9,32.95 19.01,34.05 C17.12,35.15 14.95,35.71 12.53,35.71 Z M12.53,32.26 C14.23,32.26 15.75,31.85 17.1,31.03 C18.45,30.21 19.51,29.11 20.28,27.74 C21.05,26.36 21.44,24.79 21.44,23.04 C21.44,21.31 21.05,19.75 20.28,18.36 C19.51,16.97 18.45,15.87 17.1,15.07 C15.75,14.27 14.23,13.87 12.53,13.87 C10.9,13.87 9.4,14.27 8.06,15.07 C6.71,15.87 5.66,16.97 4.9,18.36 C4.14,19.75 3.76,21.31 3.76,23.04 C3.76,24.8 4.14,26.36 4.9,27.74 C5.66,29.12 6.71,30.22 8.06,31.03 C9.41,31.84 10.89,32.26 12.53,32.26 Z" id="Shape"></path>
                <path d="M32.61,35.48 C32,35.48 31.53,35.31 31.2,34.98 C30.87,34.65 30.7,34.18 30.7,33.57 L30.7,12.54 C30.7,11.93 30.87,11.47 31.2,11.13 C31.53,10.8 32,10.63 32.61,10.63 C33.22,10.63 33.68,10.8 34,11.13 C34.32,11.46 34.48,11.93 34.48,12.54 L34.48,33.57 C34.48,34.18 34.32,34.65 34,34.98 C33.68,35.31 33.21,35.48 32.61,35.48 Z M32.38,20.08 C32.44,18.23 32.92,16.57 33.81,15.11 C34.7,13.64 35.88,12.48 37.35,11.63 C38.82,10.78 40.43,10.36 42.19,10.36 C43.73,10.36 44.91,10.59 45.71,11.04 C46.51,11.49 46.81,12.12 46.6,12.9 C46.51,13.32 46.32,13.63 46.03,13.81 C45.74,13.99 45.41,14.08 45.03,14.08 C44.65,14.08 44.22,14.05 43.74,13.99 C41.95,13.78 40.37,13.89 38.99,14.33 C37.61,14.77 36.51,15.49 35.7,16.49 C34.88,17.49 34.47,18.69 34.47,20.08 L32.38,20.08 L32.38,20.08 Z" id="Shape"></path>
                <path d="M59.5,35.71 C57.2,35.71 55.14,35.16 53.32,34.05 C51.5,32.94 50.06,31.44 49,29.53 C47.94,27.62 47.41,25.47 47.41,23.08 C47.41,20.66 47.96,18.49 49.07,16.58 C50.18,14.67 51.68,13.17 53.59,12.06 C55.5,10.95 57.63,10.4 60,10.4 C62.39,10.4 64.54,10.95 66.43,12.06 C68.32,13.17 69.82,14.67 70.93,16.58 C72.04,18.49 72.6,20.65 72.63,23.08 L71.09,23.85 C71.09,26.09 70.58,28.1 69.57,29.89 C68.55,31.68 67.18,33.09 65.44,34.14 C63.7,35.19 61.71,35.71 59.5,35.71 Z M60.05,32.26 C61.75,32.26 63.25,31.86 64.57,31.06 C65.89,30.26 66.93,29.16 67.7,27.77 C68.47,26.38 68.86,24.82 68.86,23.09 C68.86,21.33 68.47,19.77 67.7,18.39 C66.93,17.01 65.88,15.91 64.57,15.1 C63.25,14.28 61.74,13.87 60.05,13.87 C58.38,13.87 56.88,14.28 55.53,15.1 C54.18,15.92 53.11,17.02 52.33,18.39 C51.54,19.77 51.15,21.34 51.15,23.09 C51.15,24.82 51.54,26.38 52.33,27.77 C53.12,29.16 54.19,30.26 55.53,31.06 C56.88,31.85 58.38,32.26 60.05,32.26 Z M70.72,35.48 C70.14,35.48 69.67,35.31 69.29,34.96 C68.91,34.61 68.72,34.15 68.72,33.57 L68.72,26.07 L69.58,22.12 L72.62,23.07 L72.62,33.56 C72.62,34.14 72.44,34.6 72.08,34.95 C71.72,35.31 71.27,35.48 70.72,35.48 Z" id="Shape"></path>
                <path d="M80.63,6.13 C79.9,6.13 79.28,5.87 78.77,5.34 C78.25,4.81 78,4.18 78,3.45 C78,2.69 78.26,2.07 78.79,1.59 C79.32,1.11 79.93,0.86 80.63,0.86 C81.33,0.86 81.94,1.1 82.47,1.59 C83,2.08 83.26,2.7 83.26,3.45 C83.26,4.18 83,4.81 82.49,5.34 C81.98,5.87 81.36,6.13 80.63,6.13 Z M80.67,35.48 C80.09,35.48 79.63,35.31 79.26,34.96 C78.9,34.61 78.71,34.13 78.71,33.53 L78.71,12.59 C78.71,11.98 78.89,11.51 79.26,11.16 C79.62,10.81 80.09,10.64 80.67,10.64 C81.25,10.64 81.71,10.81 82.06,11.16 C82.41,11.51 82.58,11.99 82.58,12.59 L82.58,33.53 C82.58,34.14 82.41,34.61 82.06,34.96 C81.71,35.31 81.25,35.48 80.67,35.48 Z" id="Shape"></path>
                <path d="M91.99,35.48 C91.38,35.48 90.91,35.31 90.56,34.96 C90.21,34.61 90.04,34.15 90.04,33.57 L90.04,12.58 C90.04,11.97 90.21,11.5 90.56,11.15 C90.91,10.8 91.39,10.63 91.99,10.63 C92.57,10.63 93.03,10.8 93.38,11.15 C93.73,11.5 93.9,11.98 93.9,12.58 L93.9,33.57 C93.9,34.15 93.73,34.61 93.38,34.96 C93.02,35.31 92.56,35.48 91.99,35.48 Z M111.25,35.48 C110.67,35.48 110.21,35.3 109.84,34.94 C109.47,34.58 109.3,34.12 109.3,33.58 L109.3,22 C109.3,20.15 108.96,18.65 108.28,17.48 C107.6,16.31 106.67,15.44 105.49,14.84 C104.31,14.25 102.96,13.95 101.45,13.95 C100.03,13.95 98.75,14.23 97.61,14.79 C96.47,15.35 95.57,16.11 94.91,17.06 C94.24,18.01 93.91,19.11 93.91,20.35 L91.28,20.35 C91.34,18.44 91.85,16.74 92.8,15.24 C93.75,13.74 95.03,12.55 96.64,11.67 C98.24,10.79 100.03,10.35 102,10.35 C104.12,10.35 106.02,10.8 107.7,11.69 C109.38,12.58 110.71,13.89 111.7,15.62 C112.68,17.35 113.18,19.47 113.18,21.98 L113.18,33.56 C113.18,34.1 113,34.56 112.64,34.92 C112.28,35.28 111.79,35.48 111.25,35.48 Z" id="Shape"></path>
                <path d="M121.47,25.67 C120.86,25.67 120.39,25.49 120.04,25.12 C119.69,24.76 119.52,24.3 119.52,23.76 L119.52,1.95 C119.52,1.34 119.69,0.87 120.04,0.52 C120.39,0.17 120.87,0 121.47,0 C122.05,0 122.51,0.17 122.86,0.52 C123.21,0.87 123.38,1.35 123.38,1.95 L123.38,23.76 C123.38,24.3 123.21,24.76 122.86,25.12 C122.51,25.48 122.04,25.67 121.47,25.67 Z M121.47,35.48 C120.86,35.48 120.39,35.31 120.04,34.96 C119.69,34.61 119.52,34.15 119.52,33.57 L119.52,12.58 C119.52,11.97 119.69,11.5 120.04,11.15 C120.39,10.8 120.87,10.63 121.47,10.63 C122.05,10.63 122.51,10.8 122.86,11.15 C123.21,11.5 123.38,11.98 123.38,12.58 L123.38,33.57 C123.38,34.15 123.21,34.61 122.86,34.96 C122.51,35.31 122.04,35.48 121.47,35.48 Z M140.73,35.48 C140.15,35.48 139.69,35.3 139.32,34.94 C138.95,34.58 138.78,34.12 138.78,33.58 L138.78,22 C138.78,20.15 138.44,18.65 137.76,17.48 C137.08,16.31 136.15,15.44 134.97,14.84 C133.79,14.25 132.44,13.95 130.93,13.95 C129.51,13.95 128.23,14.23 127.09,14.79 C125.95,15.35 125.05,16.11 124.39,17.06 C123.72,18.01 123.39,19.11 123.39,20.35 L120.76,20.35 C120.82,18.44 121.33,16.74 122.28,15.24 C123.23,13.74 124.51,12.55 126.12,11.67 C127.72,10.79 129.51,10.35 131.48,10.35 C133.6,10.35 135.5,10.8 137.18,11.69 C138.86,12.58 140.19,13.89 141.18,15.62 C142.16,17.35 142.66,19.47 142.66,21.98 L142.66,33.56 C142.66,34.1 142.48,34.56 142.12,34.92 C141.76,35.28 141.28,35.48 140.73,35.48 Z" id="Shape"></path>
                <path d="M151.54,6.13 C150.81,6.13 150.19,5.87 149.68,5.34 C149.16,4.81 148.91,4.18 148.91,3.45 C148.91,2.69 149.17,2.07 149.7,1.59 C150.23,1.11 150.84,0.86 151.54,0.86 C152.24,0.86 152.85,1.1 153.38,1.59 C153.91,2.08 154.17,2.7 154.17,3.45 C154.17,4.18 153.91,4.81 153.4,5.34 C152.89,5.87 152.27,6.13 151.54,6.13 Z M151.59,35.48 C151.01,35.48 150.55,35.31 150.18,34.96 C149.82,34.61 149.63,34.13 149.63,33.53 L149.63,12.59 C149.63,11.98 149.81,11.51 150.18,11.16 C150.54,10.81 151.01,10.64 151.59,10.64 C152.17,10.64 152.63,10.81 152.98,11.16 C153.33,11.51 153.5,11.99 153.5,12.59 L153.5,33.53 C153.5,34.14 153.33,34.61 152.98,34.96 C152.63,35.31 152.16,35.48 151.59,35.48 Z" id="Shape"></path>
                <path d="M169.4,35.48 C168.61,35.48 168.02,35.06 167.63,34.21 L157.68,13.13 C157.47,12.71 157.44,12.28 157.61,11.86 C157.78,11.44 158.1,11.1 158.59,10.86 C159.04,10.62 159.49,10.58 159.93,10.75 C160.37,10.92 160.71,11.21 160.95,11.64 L170.4,32.13 L168.45,32.13 L177.81,11.64 C177.99,11.18 178.32,10.88 178.81,10.73 C179.29,10.58 179.76,10.61 180.22,10.82 C180.7,11.06 181.02,11.4 181.17,11.84 C181.32,12.28 181.31,12.7 181.12,13.09 L171.26,34.21 C170.87,35.06 170.24,35.48 169.4,35.48 Z" id="Path"></path>
                <path d="M195.11,35.71 C192.63,35.71 190.43,35.17 188.52,34.1 C186.61,33.03 185.11,31.53 184.02,29.63 C182.93,27.72 182.38,25.54 182.38,23.09 C182.38,20.61 182.89,18.42 183.92,16.53 C184.95,14.64 186.37,13.15 188.17,12.05 C189.97,10.96 192.05,10.42 194.42,10.42 C196.72,10.42 198.73,10.94 200.44,11.99 C202.15,13.03 203.47,14.48 204.39,16.33 C205.31,18.18 205.78,20.28 205.78,22.65 C205.78,23.16 205.61,23.58 205.28,23.9 C204.95,24.22 204.52,24.38 204.01,24.38 L185.02,24.38 L185.02,21.25 L204.24,21.25 L202.29,22.61 C202.32,20.94 202.02,19.45 201.38,18.11 C200.74,16.78 199.84,15.73 198.65,14.98 C197.47,14.22 196.06,13.84 194.43,13.84 C192.7,13.84 191.2,14.23 189.91,15.02 C188.62,15.81 187.64,16.91 186.96,18.31 C186.28,19.72 185.94,21.32 185.94,23.1 C185.94,24.88 186.33,26.48 187.12,27.87 C187.91,29.26 188.99,30.35 190.37,31.14 C191.75,31.93 193.33,32.32 195.12,32.32 C196.15,32.32 197.2,32.14 198.28,31.77 C199.35,31.41 200.21,30.95 200.85,30.41 C201.21,30.14 201.63,29.99 202.1,29.98 C202.57,29.96 202.96,30.09 203.26,30.37 C203.71,30.76 203.95,31.19 203.96,31.64 C203.97,32.09 203.77,32.49 203.35,32.82 C202.35,33.67 201.08,34.36 199.53,34.91 C197.97,35.43 196.5,35.71 195.11,35.71 Z" id="Path"></path>
            </g>
        </g>
    </g>
</svg>