<?xml version="1.0" encoding="utf-8"?>
<!-- Generator: Adobe Illustrator 26.5.0, SVG Export Plug-In . SVG Version: 6.00 Build 0)  -->
<svg version="1.1" id="Laag_1" xmlns="http://www.w3.org/2000/svg" xmlns:xlink="http://www.w3.org/1999/xlink" x="0px" y="0px"
	 viewBox="0 0 205.8 170.86" style="enable-background:new 0 0 205.8 170.86;" xml:space="preserve">
<style type="text/css">
	.st0{fill:url(#SVGID_1_);}
	.st1{fill:url(#SVGID_00000117648497872709380310000018098747021994872253_);}
	.st2{fill:#2E4476;}
</style>
<g>
	<linearGradient id="SVGID_1_" gradientUnits="userSpaceOnUse" x1="65.6997" y1="117.8984" x2="123.033" y2="28.5651">
		<stop  offset="0" style="stop-color:#485DA1"/>
		<stop  offset="0.1213" style="stop-color:#4862A5"/>
		<stop  offset="0.3057" style="stop-color:#4770AE"/>
		<stop  offset="0.5302" style="stop-color:#4686BE"/>
		<stop  offset="0.7839" style="stop-color:#47A4D2"/>
		<stop  offset="1" style="stop-color:#4BC0E3"/>
	</linearGradient>
	<path class="st0" d="M160.01,64.31c0.02-0.03,0.03-0.05,0.05-0.08c0.07-0.1,0.13-0.2,0.18-0.3c0.02-0.04,0.04-0.08,0.06-0.12
		c0.05-0.1,0.1-0.19,0.14-0.29c0.02-0.05,0.04-0.11,0.06-0.16c0.04-0.09,0.07-0.18,0.1-0.28c0.02-0.07,0.04-0.14,0.06-0.21
		c0.02-0.08,0.05-0.17,0.06-0.25c0.02-0.09,0.03-0.18,0.04-0.27c0.01-0.07,0.03-0.14,0.03-0.21c0.02-0.14,0.02-0.29,0.02-0.43
		c0-0.02,0-0.04,0-0.06c0,0,0,0,0,0c0,0,0,0,0,0c0-0.17-0.01-0.34-0.03-0.5c0-0.03-0.01-0.05-0.01-0.08
		c-0.02-0.14-0.04-0.28-0.07-0.41c-0.01-0.04-0.02-0.07-0.03-0.11c-0.03-0.12-0.06-0.24-0.1-0.36c-0.01-0.04-0.03-0.09-0.05-0.13
		c-0.04-0.11-0.08-0.22-0.13-0.32c-0.02-0.05-0.05-0.1-0.07-0.14c-0.05-0.1-0.1-0.19-0.15-0.29c-0.03-0.05-0.06-0.1-0.09-0.15
		c-0.06-0.09-0.12-0.18-0.18-0.26c-0.03-0.05-0.07-0.09-0.1-0.14c-0.07-0.09-0.14-0.17-0.22-0.25c-0.03-0.04-0.07-0.07-0.1-0.11
		c-0.09-0.1-0.19-0.19-0.3-0.28c-0.02-0.01-0.03-0.03-0.05-0.04c-0.79-0.67-1.33-1.58-1.56-2.6l0.01-0.04h-0.02
		c-0.07-0.33-0.11-0.68-0.11-1.03v-7.95h-0.04v-7.19c0-5.98-3.22-11.56-8.4-14.55L110.14,2.24c-5.18-2.99-11.62-2.99-16.8,0
		L54.42,24.72c-5.18,2.99-8.4,8.57-8.4,14.55v14.69h0v0.51c0,1.42-0.59,2.71-1.62,3.56c-1.09,0.9-1.72,2.22-1.72,3.63
		s0.63,2.73,1.72,3.63c1.03,0.84,1.62,2.14,1.62,3.56v0.65h0v23.64c0,0.75,0.61,1.35,1.35,1.35s1.35-0.61,1.35-1.35V69.49V67.4
		c0-0.69,0.37-1.33,0.97-1.68c0.58-0.34,1.31-0.34,1.89,0l21.66,12.5l0,15.83h0v9.07c0,0.72-0.38,1.37-0.98,1.7
		c-0.11,0.06-0.22,0.13-0.33,0.2c-0.02,0.01-0.04,0.03-0.06,0.04c-0.1,0.07-0.2,0.15-0.3,0.22c-0.01,0.01-0.03,0.02-0.04,0.03
		c-0.22,0.19-0.43,0.39-0.62,0.62c0,0,0,0-0.01,0.01c-0.09,0.11-0.17,0.22-0.25,0.33c-0.01,0.02-0.02,0.03-0.03,0.05
		c-0.08,0.12-0.16,0.25-0.23,0.38c-0.05,0.1-0.1,0.2-0.14,0.3c-0.02,0.03-0.03,0.07-0.05,0.1c-0.04,0.09-0.07,0.19-0.1,0.28
		c-0.02,0.05-0.04,0.1-0.05,0.15c-0.02,0.06-0.03,0.12-0.04,0.17c-0.05,0.19-0.09,0.39-0.12,0.59c0,0.04-0.01,0.07-0.02,0.11
		c-0.01,0.11-0.02,0.22-0.02,0.33c0,0.04-0.01,0.08-0.01,0.12c0,0.02,0,0.05,0,0.07c0,0.09,0.01,0.19,0.01,0.28
		c0,0.03,0,0.06,0,0.09c0.01,0.13,0.03,0.25,0.05,0.38c0,0.02,0,0.03,0.01,0.05c0.02,0.13,0.05,0.26,0.08,0.38
		c0,0.01,0.01,0.02,0.01,0.04c0.03,0.13,0.07,0.25,0.12,0.37c0.01,0.02,0.01,0.04,0.02,0.06c0.04,0.11,0.09,0.22,0.14,0.33
		c0.02,0.03,0.03,0.07,0.05,0.1c0.04,0.09,0.09,0.18,0.14,0.26c0.03,0.06,0.07,0.11,0.1,0.16c0.04,0.06,0.08,0.13,0.12,0.19
		c0.05,0.08,0.11,0.15,0.17,0.22c0.03,0.04,0.06,0.08,0.09,0.12c0.07,0.09,0.15,0.17,0.22,0.25c0.02,0.02,0.05,0.05,0.07,0.07
		c0.08,0.08,0.17,0.16,0.26,0.23c0.03,0.02,0.05,0.05,0.08,0.07c0.08,0.07,0.17,0.13,0.26,0.19c0.04,0.03,0.08,0.06,0.12,0.08
		c0.02,0.02,0.05,0.03,0.07,0.05c0.21,0.13,0.43,0.25,0.66,0.35c0.02,0.01,0.04,0.02,0.06,0.03c0.12,0.05,0.24,0.09,0.36,0.13
		c0.01,0,0.03,0.01,0.04,0.01c0.29,0.09,0.59,0.15,0.89,0.18c0.01,0,0.01,0,0.02,0c0.15,0.02,0.31,0.03,0.46,0.03
		c0.05,0,0.1-0.01,0.14-0.01c0.13,0,0.26-0.01,0.38-0.02c0.05-0.01,0.11-0.02,0.16-0.02c0.13-0.02,0.26-0.04,0.38-0.07
		c0.02-0.01,0.04-0.01,0.07-0.01c0.04-0.01,0.08-0.02,0.11-0.03c0.09-0.02,0.17-0.05,0.25-0.08c0.07-0.03,0.15-0.05,0.22-0.08
		c0.06-0.02,0.12-0.05,0.19-0.08c0.09-0.04,0.19-0.09,0.28-0.13c0.03-0.02,0.07-0.04,0.1-0.06c0.11-0.06,0.22-0.13,0.32-0.19
		c0.01-0.01,0.03-0.02,0.04-0.03c0.12-0.08,0.23-0.16,0.33-0.25c0.01,0,0.01-0.01,0.02-0.01c0.11-0.09,0.21-0.19,0.31-0.29
		c0.01-0.01,0.02-0.02,0.03-0.03c0.09-0.09,0.18-0.19,0.27-0.29c0.02-0.02,0.04-0.05,0.06-0.07c0.07-0.09,0.14-0.18,0.2-0.27
		c0.03-0.05,0.06-0.1,0.09-0.14c0.04-0.06,0.08-0.11,0.11-0.17c0.02-0.03,0.03-0.06,0.04-0.08c0.01-0.02,0.02-0.04,0.03-0.06
		c0.06-0.11,0.11-0.22,0.16-0.33c0.01-0.02,0.02-0.04,0.03-0.06c0.05-0.12,0.09-0.24,0.13-0.37c0.01-0.04,0.02-0.08,0.04-0.12
		c0.03-0.1,0.05-0.19,0.08-0.29c0.01-0.04,0.02-0.07,0.03-0.11c0.02-0.12,0.04-0.25,0.06-0.38c0.01-0.05,0.01-0.09,0.01-0.14
		c0.01-0.1,0.01-0.2,0.02-0.3c0-0.03,0-0.06,0-0.09c0-0.01,0-0.02,0-0.03c0-0.73,0.37-1.4,0.98-1.75l10-5.77l-0.01-0.01l7.22-4.17
		c0.55-0.32,1.18-0.43,1.8-0.34c0.68,0.41,1.46,0.65,2.3,0.67c0.03,0,0.05,0,0.08,0c0.01,0,0.02,0,0.04,0
		c0.69,0,1.33-0.15,1.92-0.42c0,0,0,0,0,0c0.83-0.37,1.78-0.33,2.56,0.12l2.67,1.54l13.47,7.79c0.02,0.01,0.05,0.02,0.07,0.04
		c0.78,0.48,1.25,1.3,1.25,2.23c0,0.94-0.48,1.79-1.3,2.26l-0.15,0.08l-21.17,12.14c-0.65,0.37-0.87,1.2-0.5,1.85
		c0.24,0.42,0.69,0.68,1.17,0.68c0.24,0,0.47-0.06,0.67-0.18l7.44-4.27c0.14-0.03,0.27-0.08,0.4-0.15l13.35-7.7
		c1.08-0.52,2.31-0.62,3.46-0.29c0.57,0.24,1.19,0.38,1.84,0.38c2.35,0,4.29-1.73,4.63-3.99c0.32-1.27,1.03-2.32,2.02-3l13.63-7.87
		c5.18-2.99,8.4-8.57,8.4-14.55V74.13h0.04v-5.22c0-1.43,0.61-2.77,1.68-3.67c0.21-0.18,0.4-0.38,0.57-0.58
		c0.01-0.01,0.02-0.02,0.03-0.04C159.86,64.52,159.94,64.41,160.01,64.31z M50.34,58.02c-1.03-0.84-1.62-2.14-1.62-3.56v-0.51V39.27
		c0-5.02,2.7-9.7,7.05-12.21l17.48-10.09l0,22.19c0,0.01,0,0.02,0,0.03v0.23c0,1.11-0.5,2.13-1.35,2.72
		c-1.25,0.88-1.99,2.31-1.99,3.84c0,1.52,0.74,2.96,1.99,3.84c0.84,0.59,1.35,1.61,1.35,2.72v0.36c0,0.01,0,0.02,0,0.03V75.1
		L53.01,63.42c-0.59-0.34-0.95-1-0.94-1.72l0-0.05C52.06,60.24,51.44,58.91,50.34,58.02z M47.38,60c0.44,0,0.84,0.17,1.16,0.48
		c0.41,0.41,0.57,0.97,0.44,1.55c-0.13,0.6-0.62,1.09-1.22,1.22h0c-0.57,0.13-1.14-0.03-1.55-0.44c-0.41-0.41-0.57-0.97-0.44-1.55
		c0.13-0.6,0.62-1.09,1.22-1.22C47.12,60.02,47.25,60,47.38,60z M103.15,93.49c-0.04,0.09-0.08,0.17-0.14,0.25
		c-0.01,0.01-0.02,0.03-0.03,0.04c-0.11,0.16-0.25,0.3-0.42,0.42c-0.01,0.01-0.02,0.01-0.03,0.02c-0.08,0.05-0.16,0.09-0.24,0.13
		c-0.01,0-0.02,0.01-0.03,0.01c-0.08,0.03-0.17,0.06-0.26,0.08c-0.03,0.01-0.06,0.01-0.09,0.02c-0.09,0.02-0.19,0.03-0.29,0.03
		c0,0,0,0,0,0c-0.11,0-0.21-0.01-0.31-0.03c-0.01,0-0.02,0-0.03-0.01c-0.1-0.02-0.19-0.05-0.29-0.09c-0.01,0-0.02-0.01-0.03-0.01
		c-0.08-0.04-0.16-0.08-0.24-0.13c-0.01-0.01-0.02-0.01-0.03-0.02c-0.43-0.3-0.72-0.79-0.72-1.36c0-0.11,0.01-0.22,0.03-0.33
		c0,0,0,0,0,0c0.02-0.1,0.05-0.2,0.09-0.3c0-0.01,0-0.01,0.01-0.02c0.04-0.09,0.09-0.18,0.14-0.26c0.01-0.01,0.01-0.02,0.02-0.02
		c0.12-0.17,0.26-0.31,0.43-0.43c0.01,0,0.01-0.01,0.02-0.01c0.08-0.05,0.17-0.1,0.26-0.14c0.01,0,0.01-0.01,0.02-0.01
		c0.08-0.04,0.17-0.06,0.27-0.08c0.03-0.01,0.06-0.01,0.08-0.02c0.09-0.02,0.19-0.03,0.29-0.03c0.11,0,0.22,0.01,0.33,0.03
		c0.01,0,0.01,0,0.02,0c0.1,0.02,0.19,0.05,0.28,0.09c0.03,0.01,0.06,0.03,0.09,0.04c0.06,0.03,0.13,0.06,0.19,0.1
		c0.03,0.02,0.05,0.04,0.08,0.06c0.31,0.24,0.54,0.58,0.63,0.97c0,0,0,0.01,0,0.01c0.02,0.11,0.03,0.21,0.03,0.33
		c0,0.11-0.01,0.22-0.03,0.32c0,0.01,0,0.01-0.01,0.02c-0.02,0.09-0.05,0.18-0.08,0.27C103.15,93.46,103.15,93.47,103.15,93.49z
		 M75.95,16.99l23.09,13.34L79.88,41.43c-0.82,0.47-1.8,0.47-2.62,0c-0.81-0.47-1.3-1.3-1.31-2.23v-8.42h0L75.95,16.99z
		 M154.63,61.01c0.04-0.09,0.09-0.18,0.14-0.26c0.01-0.01,0.01-0.02,0.02-0.03c0.11-0.16,0.25-0.3,0.42-0.42
		c0.02-0.01,0.03-0.02,0.05-0.03c0.07-0.04,0.14-0.08,0.21-0.12c0.02-0.01,0.04-0.02,0.05-0.03c0.08-0.03,0.17-0.06,0.25-0.08
		c0.04-0.01,0.08-0.01,0.12-0.02c0.05-0.01,0.1-0.01,0.15-0.02c0.03,0,0.07-0.01,0.1-0.01c0.44,0,0.84,0.17,1.16,0.48
		c0.02,0.02,0.04,0.05,0.07,0.07c0.03,0.04,0.07,0.08,0.1,0.12c0.02,0.03,0.04,0.06,0.06,0.09c0.05,0.07,0.09,0.15,0.12,0.23
		c0,0.01,0,0.01,0.01,0.02c0.04,0.09,0.06,0.17,0.08,0.27c0,0.02,0.01,0.04,0.01,0.06c0.02,0.1,0.03,0.19,0.03,0.29
		c0,0.01,0,0.03,0,0.04c0,0.1-0.01,0.2-0.03,0.3c0,0,0,0.01,0,0.01c-0.15,0.75-0.82,1.31-1.61,1.31c-0.79,0-1.45-0.56-1.61-1.31
		c0-0.01,0-0.01,0-0.02c-0.02-0.1-0.03-0.2-0.03-0.31c0-0.02,0-0.03,0-0.05c0-0.09,0.01-0.18,0.03-0.27c0-0.01,0-0.03,0.01-0.04
		C154.56,61.2,154.59,61.1,154.63,61.01C154.63,61.01,154.63,61.01,154.63,61.01z M111.99,66.09c-0.03-0.02-0.07-0.04-0.1-0.05
		c-1.52-0.92-2.43-2.51-2.43-4.3c0-1.81,0.94-3.44,2.51-4.35l11.65-6.74c0.4-0.23,0.86-0.36,1.31-0.36c0.45,0,0.9,0.12,1.31,0.35
		c0.82,0.47,1.31,1.32,1.31,2.27v22.16L111.99,66.09z M101.63,57.47c2.31,0,4.18,1.87,4.18,4.18c0,2.31-1.87,4.18-4.18,4.18
		c-2.31,0-4.18-1.87-4.18-4.18C97.45,59.34,99.32,57.47,101.63,57.47z M123.58,46.03c0,0.94-0.49,1.79-1.31,2.26l-11.64,6.73
		c-1.57,0.91-3.45,0.91-5.02,0c-1.57-0.91-2.51-2.53-2.51-4.35V32.7l19.16,11.07c0.02,0.01,0.04,0.02,0.07,0.04
		C123.11,44.29,123.58,45.11,123.58,46.03z M81.22,43.78l19.17-11.09v17.99v0.01c0,1.82-0.94,3.44-2.51,4.35
		c-1.54,0.89-3.37,0.9-4.92,0.05c-0.03-0.02-0.05-0.03-0.08-0.05l-11.64-6.73c-0.02-0.01-0.05-0.02-0.07-0.04
		c-0.78-0.48-1.25-1.3-1.25-2.23C79.91,45.1,80.4,44.26,81.22,43.78z M104.4,88.51c-0.82-0.47-1.31-1.32-1.31-2.27V72.79v-0.01
		c0-1.82,0.94-3.44,2.51-4.35c0.77-0.45,1.64-0.68,2.51-0.68c0.83,0,1.66,0.22,2.41,0.63c0.03,0.02,0.05,0.03,0.08,0.05l15.57,9
		l-19.16,11.08C106.2,88.99,105.22,88.99,104.4,88.51z M149.41,63.99l-19.17,11.09V52.92v0c0-0.95,0.49-1.79,1.31-2.27
		c0.4-0.23,0.85-0.36,1.31-0.36c0.38,0,0.76,0.09,1.11,0.26l8.15,4.7l0.01-0.01l7.3,4.22c0.82,0.47,1.31,1.32,1.31,2.26
		C150.72,62.68,150.23,63.52,149.41,63.99z M96.48,88.52L77.31,77.44l15.54-8.99c1.57-0.91,3.45-0.91,5.02,0
		c1.57,0.91,2.51,2.53,2.51,4.35v13.46v0c0,0.95-0.49,1.79-1.31,2.27c-0.8,0.46-1.75,0.47-2.55,0.03
		C96.51,88.54,96.5,88.53,96.48,88.52z M130.24,101.94V78.22l20.51-11.87c0.82-0.47,1.8-0.47,2.62,0c0.82,0.47,1.31,1.32,1.31,2.27
		v15.74c0,4.92-2.65,9.51-6.91,11.98l-13.6,7.87c-0.82,0.47-1.8,0.47-2.62,0C130.73,103.74,130.24,102.89,130.24,101.94z
		 M74.61,44.33c0.44,0,0.84,0.17,1.16,0.48c0.41,0.41,0.57,0.97,0.44,1.55c-0.13,0.6-0.62,1.09-1.22,1.22
		c-0.57,0.13-1.14-0.03-1.55-0.44c-0.41-0.41-0.57-0.97-0.44-1.55c0.13-0.6,0.62-1.09,1.22-1.22
		C74.35,44.34,74.48,44.33,74.61,44.33z M75.95,58.45L75.95,58.45l0-5.57c0.01-0.93,0.5-1.77,1.31-2.23
		c0.4-0.23,0.85-0.36,1.31-0.36c0.43,0,0.86,0.11,1.24,0.32c0.02,0.01,0.04,0.02,0.06,0.03l11.64,6.73c0.03,0.02,0.07,0.04,0.1,0.05
		c1.52,0.92,2.43,2.51,2.43,4.3c0,1.81-0.94,3.44-2.51,4.35l-15.57,9.01V58.45z M127.53,27.22v11.94c0,0.95-0.49,1.79-1.31,2.27
		c-0.8,0.46-1.75,0.47-2.55,0.03c-0.02-0.01-0.03-0.02-0.05-0.03l-19.17-11.08l23.08-13.35V27.22z M123.62,104.21l-15.35-8.87
		c-0.76-0.48-1.22-1.3-1.22-2.21c0-0.95,0.49-1.79,1.31-2.26l19.17-11.09v22.17v0c0,0.95-0.49,1.79-1.31,2.27
		c-0.8,0.46-1.74,0.47-2.55,0.03C123.66,104.23,123.64,104.22,123.62,104.21z M154.76,55.71l-0.02,0.06
		c-0.21,0.58-0.61,1.05-1.16,1.36c-0.83,0.47-1.82,0.47-2.65,0l-16.45-9.43c-0.61-0.48-0.99-1.19-1.02-1.92
		c0-0.03-0.01-0.05-0.01-0.08c-0.01-0.15-0.02-0.29-0.04-0.44c-0.01-0.04-0.01-0.08-0.02-0.12c-0.03-0.17-0.07-0.34-0.11-0.5
		c0-0.01-0.01-0.02-0.01-0.04c-0.05-0.18-0.12-0.36-0.19-0.53c-0.01-0.03-0.03-0.07-0.05-0.1c-0.06-0.12-0.12-0.25-0.19-0.36
		c-0.02-0.03-0.03-0.06-0.04-0.09c-0.02-0.03-0.04-0.07-0.08-0.11c-0.38-0.59-0.89-1.09-1.48-1.46c-0.65-0.8-1.01-1.78-1.01-2.82
		V27.22h0V16.99l11.54,6.67c0.08,0.05,0.17,0.08,0.25,0.11l5.68,3.28c4.35,2.51,7.05,7.19,7.05,12.21V55.71z M101.76,28.78
		L77.28,14.64L94.7,4.59c4.35-2.51,9.75-2.51,14.1,0l17.41,10.05L101.76,28.78z M95.11,90.86c0.02,0.01,0.04,0.02,0.07,0.04
		c0.78,0.48,1.25,1.31,1.25,2.23c0,0.95-0.49,1.79-1.31,2.26l-6.75,3.9l-1.36,0.78l0,0L79,104.72c-0.63,0.37-1.39,0.37-2.03,0
		c-0.63-0.36-1.01-1.01-1.01-1.74v-8.93h0l0-14.27L95.11,90.86z"/>
	
		<radialGradient id="SVGID_00000071540877311586590540000002969492351024458668_" cx="101.7616" cy="62.9134" r="61.0263" gradientUnits="userSpaceOnUse">
		<stop  offset="0.0784" style="stop-color:#872078;stop-opacity:0.8"/>
		<stop  offset="0.0799" style="stop-color:#872078;stop-opacity:0.7987"/>
		<stop  offset="0.1861" style="stop-color:#8E2F7F;stop-opacity:0.7065"/>
		<stop  offset="0.3174" style="stop-color:#933883;stop-opacity:0.5925"/>
		<stop  offset="0.5012" style="stop-color:#963E86;stop-opacity:0.433"/>
		<stop  offset="1" style="stop-color:#973F87;stop-opacity:0"/>
	</radialGradient>
	<path style="fill:url(#SVGID_00000071540877311586590540000002969492351024458668_);" d="M160.01,64.31
		c0.02-0.03,0.03-0.05,0.05-0.08c0.07-0.1,0.13-0.2,0.18-0.3c0.02-0.04,0.04-0.08,0.06-0.12c0.05-0.1,0.1-0.19,0.14-0.29
		c0.02-0.05,0.04-0.11,0.06-0.16c0.04-0.09,0.07-0.18,0.1-0.28c0.02-0.07,0.04-0.14,0.06-0.21c0.02-0.08,0.05-0.17,0.06-0.25
		c0.02-0.09,0.03-0.18,0.04-0.27c0.01-0.07,0.03-0.14,0.03-0.21c0.02-0.14,0.02-0.29,0.02-0.43c0-0.02,0-0.04,0-0.06c0,0,0,0,0,0
		c0,0,0,0,0,0c0-0.17-0.01-0.34-0.03-0.5c0-0.03-0.01-0.05-0.01-0.08c-0.02-0.14-0.04-0.28-0.07-0.41
		c-0.01-0.04-0.02-0.07-0.03-0.11c-0.03-0.12-0.06-0.24-0.1-0.36c-0.01-0.04-0.03-0.09-0.05-0.13c-0.04-0.11-0.08-0.22-0.13-0.32
		c-0.02-0.05-0.05-0.1-0.07-0.14c-0.05-0.1-0.1-0.19-0.15-0.29c-0.03-0.05-0.06-0.1-0.09-0.15c-0.06-0.09-0.12-0.18-0.18-0.26
		c-0.03-0.05-0.07-0.09-0.1-0.14c-0.07-0.09-0.14-0.17-0.22-0.25c-0.03-0.04-0.07-0.07-0.1-0.11c-0.09-0.1-0.19-0.19-0.3-0.28
		c-0.02-0.01-0.03-0.03-0.05-0.04c-0.79-0.67-1.33-1.58-1.56-2.6l0.01-0.04h-0.02c-0.07-0.33-0.11-0.68-0.11-1.03v-7.95h-0.04v-7.19
		c0-5.98-3.22-11.56-8.4-14.55L110.14,2.24c-5.18-2.99-11.62-2.99-16.8,0L54.42,24.72c-5.18,2.99-8.4,8.57-8.4,14.55v14.69h0v0.51
		c0,1.42-0.59,2.71-1.62,3.56c-1.09,0.9-1.72,2.22-1.72,3.63s0.63,2.73,1.72,3.63c1.03,0.84,1.62,2.14,1.62,3.56v0.65h0v23.64
		c0,0.75,0.61,1.35,1.35,1.35s1.35-0.61,1.35-1.35V69.49V67.4c0-0.69,0.37-1.33,0.97-1.68c0.58-0.34,1.31-0.34,1.89,0l21.66,12.5
		l0,15.83h0v9.07c0,0.72-0.38,1.37-0.98,1.7c-0.11,0.06-0.22,0.13-0.33,0.2c-0.02,0.01-0.04,0.03-0.06,0.04
		c-0.1,0.07-0.2,0.15-0.3,0.22c-0.01,0.01-0.03,0.02-0.04,0.03c-0.22,0.19-0.43,0.39-0.62,0.62c0,0,0,0-0.01,0.01
		c-0.09,0.11-0.17,0.22-0.25,0.33c-0.01,0.02-0.02,0.03-0.03,0.05c-0.08,0.12-0.16,0.25-0.23,0.38c-0.05,0.1-0.1,0.2-0.14,0.3
		c-0.02,0.03-0.03,0.07-0.05,0.1c-0.04,0.09-0.07,0.19-0.1,0.28c-0.02,0.05-0.04,0.1-0.05,0.15c-0.02,0.06-0.03,0.12-0.04,0.17
		c-0.05,0.19-0.09,0.39-0.12,0.59c0,0.04-0.01,0.07-0.02,0.11c-0.01,0.11-0.02,0.22-0.02,0.33c0,0.04-0.01,0.08-0.01,0.12
		c0,0.02,0,0.05,0,0.07c0,0.09,0.01,0.19,0.01,0.28c0,0.03,0,0.06,0,0.09c0.01,0.13,0.03,0.25,0.05,0.38c0,0.02,0,0.03,0.01,0.05
		c0.02,0.13,0.05,0.26,0.08,0.38c0,0.01,0.01,0.02,0.01,0.04c0.03,0.13,0.07,0.25,0.12,0.37c0.01,0.02,0.01,0.04,0.02,0.06
		c0.04,0.11,0.09,0.22,0.14,0.33c0.02,0.03,0.03,0.07,0.05,0.1c0.04,0.09,0.09,0.18,0.14,0.26c0.03,0.06,0.07,0.11,0.1,0.16
		c0.04,0.06,0.08,0.13,0.12,0.19c0.05,0.08,0.11,0.15,0.17,0.22c0.03,0.04,0.06,0.08,0.09,0.12c0.07,0.09,0.15,0.17,0.22,0.25
		c0.02,0.02,0.05,0.05,0.07,0.07c0.08,0.08,0.17,0.16,0.26,0.23c0.03,0.02,0.05,0.05,0.08,0.07c0.08,0.07,0.17,0.13,0.26,0.19
		c0.04,0.03,0.08,0.06,0.12,0.08c0.02,0.02,0.05,0.03,0.07,0.05c0.21,0.13,0.43,0.25,0.66,0.35c0.02,0.01,0.04,0.02,0.06,0.03
		c0.12,0.05,0.24,0.09,0.36,0.13c0.01,0,0.03,0.01,0.04,0.01c0.29,0.09,0.59,0.15,0.89,0.18c0.01,0,0.01,0,0.02,0
		c0.15,0.02,0.31,0.03,0.46,0.03c0.05,0,0.1-0.01,0.14-0.01c0.13,0,0.26-0.01,0.38-0.02c0.05-0.01,0.11-0.02,0.16-0.02
		c0.13-0.02,0.26-0.04,0.38-0.07c0.02-0.01,0.04-0.01,0.07-0.01c0.04-0.01,0.08-0.02,0.11-0.03c0.09-0.02,0.17-0.05,0.25-0.08
		c0.07-0.03,0.15-0.05,0.22-0.08c0.06-0.02,0.12-0.05,0.19-0.08c0.09-0.04,0.19-0.09,0.28-0.13c0.03-0.02,0.07-0.04,0.1-0.06
		c0.11-0.06,0.22-0.13,0.32-0.19c0.01-0.01,0.03-0.02,0.04-0.03c0.12-0.08,0.23-0.16,0.33-0.25c0.01,0,0.01-0.01,0.02-0.01
		c0.11-0.09,0.21-0.19,0.31-0.29c0.01-0.01,0.02-0.02,0.03-0.03c0.09-0.09,0.18-0.19,0.27-0.29c0.02-0.02,0.04-0.05,0.06-0.07
		c0.07-0.09,0.14-0.18,0.2-0.27c0.03-0.05,0.06-0.1,0.09-0.14c0.04-0.06,0.08-0.11,0.11-0.17c0.02-0.03,0.03-0.06,0.04-0.08
		c0.01-0.02,0.02-0.04,0.03-0.06c0.06-0.11,0.11-0.22,0.16-0.33c0.01-0.02,0.02-0.04,0.03-0.06c0.05-0.12,0.09-0.24,0.13-0.37
		c0.01-0.04,0.02-0.08,0.04-0.12c0.03-0.1,0.05-0.19,0.08-0.29c0.01-0.04,0.02-0.07,0.03-0.11c0.02-0.12,0.04-0.25,0.06-0.38
		c0.01-0.05,0.01-0.09,0.01-0.14c0.01-0.1,0.01-0.2,0.02-0.3c0-0.03,0-0.06,0-0.09c0-0.01,0-0.02,0-0.03c0-0.73,0.37-1.4,0.98-1.75
		l10-5.77l-0.01-0.01l7.22-4.17c0.55-0.32,1.18-0.43,1.8-0.34c0.68,0.41,1.46,0.65,2.3,0.67c0.03,0,0.05,0,0.08,0
		c0.01,0,0.02,0,0.04,0c0.69,0,1.33-0.15,1.92-0.42c0,0,0,0,0,0c0.83-0.37,1.78-0.33,2.56,0.12l2.67,1.54l13.47,7.79
		c0.02,0.01,0.05,0.02,0.07,0.04c0.78,0.48,1.25,1.3,1.25,2.23c0,0.94-0.48,1.79-1.3,2.26l-0.15,0.08l-21.17,12.14
		c-0.65,0.37-0.87,1.2-0.5,1.85c0.24,0.42,0.69,0.68,1.17,0.68c0.24,0,0.47-0.06,0.67-0.18l7.44-4.27c0.14-0.03,0.27-0.08,0.4-0.15
		l13.35-7.7c1.08-0.52,2.31-0.62,3.46-0.29c0.57,0.24,1.19,0.38,1.84,0.38c2.35,0,4.29-1.73,4.63-3.99c0.32-1.27,1.03-2.32,2.02-3
		l13.63-7.87c5.18-2.99,8.4-8.57,8.4-14.55V74.13h0.04v-5.22c0-1.43,0.61-2.77,1.68-3.67c0.21-0.18,0.4-0.38,0.57-0.58
		c0.01-0.01,0.02-0.02,0.03-0.04C159.86,64.52,159.94,64.41,160.01,64.31z M50.34,58.02c-1.03-0.84-1.62-2.14-1.62-3.56v-0.51V39.27
		c0-5.02,2.7-9.7,7.05-12.21l17.48-10.09l0,22.19c0,0.01,0,0.02,0,0.03v0.23c0,1.11-0.5,2.13-1.35,2.72
		c-1.25,0.88-1.99,2.31-1.99,3.84c0,1.52,0.74,2.96,1.99,3.84c0.84,0.59,1.35,1.61,1.35,2.72v0.36c0,0.01,0,0.02,0,0.03V75.1
		L53.01,63.42c-0.59-0.34-0.95-1-0.94-1.72l0-0.05C52.06,60.24,51.44,58.91,50.34,58.02z M47.38,60c0.44,0,0.84,0.17,1.16,0.48
		c0.41,0.41,0.57,0.97,0.44,1.55c-0.13,0.6-0.62,1.09-1.22,1.22h0c-0.57,0.13-1.14-0.03-1.55-0.44c-0.41-0.41-0.57-0.97-0.44-1.55
		c0.13-0.6,0.62-1.09,1.22-1.22C47.12,60.02,47.25,60,47.38,60z M103.15,93.49c-0.04,0.09-0.08,0.17-0.14,0.25
		c-0.01,0.01-0.02,0.03-0.03,0.04c-0.11,0.16-0.25,0.3-0.42,0.42c-0.01,0.01-0.02,0.01-0.03,0.02c-0.08,0.05-0.16,0.09-0.24,0.13
		c-0.01,0-0.02,0.01-0.03,0.01c-0.08,0.03-0.17,0.06-0.26,0.08c-0.03,0.01-0.06,0.01-0.09,0.02c-0.09,0.02-0.19,0.03-0.29,0.03
		c0,0,0,0,0,0c-0.11,0-0.21-0.01-0.31-0.03c-0.01,0-0.02,0-0.03-0.01c-0.1-0.02-0.19-0.05-0.29-0.09c-0.01,0-0.02-0.01-0.03-0.01
		c-0.08-0.04-0.16-0.08-0.24-0.13c-0.01-0.01-0.02-0.01-0.03-0.02c-0.43-0.3-0.72-0.79-0.72-1.36c0-0.11,0.01-0.22,0.03-0.33
		c0,0,0,0,0,0c0.02-0.1,0.05-0.2,0.09-0.3c0-0.01,0-0.01,0.01-0.02c0.04-0.09,0.09-0.18,0.14-0.26c0.01-0.01,0.01-0.02,0.02-0.02
		c0.12-0.17,0.26-0.31,0.43-0.43c0.01,0,0.01-0.01,0.02-0.01c0.08-0.05,0.17-0.1,0.26-0.14c0.01,0,0.01-0.01,0.02-0.01
		c0.08-0.04,0.17-0.06,0.27-0.08c0.03-0.01,0.06-0.01,0.08-0.02c0.09-0.02,0.19-0.03,0.29-0.03c0.11,0,0.22,0.01,0.33,0.03
		c0.01,0,0.01,0,0.02,0c0.1,0.02,0.19,0.05,0.28,0.09c0.03,0.01,0.06,0.03,0.09,0.04c0.06,0.03,0.13,0.06,0.19,0.1
		c0.03,0.02,0.05,0.04,0.08,0.06c0.31,0.24,0.54,0.58,0.63,0.97c0,0,0,0.01,0,0.01c0.02,0.11,0.03,0.21,0.03,0.33
		c0,0.11-0.01,0.22-0.03,0.32c0,0.01,0,0.01-0.01,0.02c-0.02,0.09-0.05,0.18-0.08,0.27C103.15,93.46,103.15,93.47,103.15,93.49z
		 M75.95,16.99l23.09,13.34L79.88,41.43c-0.82,0.47-1.8,0.47-2.62,0c-0.81-0.47-1.3-1.3-1.31-2.23v-8.42h0L75.95,16.99z
		 M154.63,61.01c0.04-0.09,0.09-0.18,0.14-0.26c0.01-0.01,0.01-0.02,0.02-0.03c0.11-0.16,0.25-0.3,0.42-0.42
		c0.02-0.01,0.03-0.02,0.05-0.03c0.07-0.04,0.14-0.08,0.21-0.12c0.02-0.01,0.04-0.02,0.05-0.03c0.08-0.03,0.17-0.06,0.25-0.08
		c0.04-0.01,0.08-0.01,0.12-0.02c0.05-0.01,0.1-0.01,0.15-0.02c0.03,0,0.07-0.01,0.1-0.01c0.44,0,0.84,0.17,1.16,0.48
		c0.02,0.02,0.04,0.05,0.07,0.07c0.03,0.04,0.07,0.08,0.1,0.12c0.02,0.03,0.04,0.06,0.06,0.09c0.05,0.07,0.09,0.15,0.12,0.23
		c0,0.01,0,0.01,0.01,0.02c0.04,0.09,0.06,0.17,0.08,0.27c0,0.02,0.01,0.04,0.01,0.06c0.02,0.1,0.03,0.19,0.03,0.29
		c0,0.01,0,0.03,0,0.04c0,0.1-0.01,0.2-0.03,0.3c0,0,0,0.01,0,0.01c-0.15,0.75-0.82,1.31-1.61,1.31c-0.79,0-1.45-0.56-1.61-1.31
		c0-0.01,0-0.01,0-0.02c-0.02-0.1-0.03-0.2-0.03-0.31c0-0.02,0-0.03,0-0.05c0-0.09,0.01-0.18,0.03-0.27c0-0.01,0-0.03,0.01-0.04
		C154.56,61.2,154.59,61.1,154.63,61.01C154.63,61.01,154.63,61.01,154.63,61.01z M111.99,66.09c-0.03-0.02-0.07-0.04-0.1-0.05
		c-1.52-0.92-2.43-2.51-2.43-4.3c0-1.81,0.94-3.44,2.51-4.35l11.65-6.74c0.4-0.23,0.86-0.36,1.31-0.36c0.45,0,0.9,0.12,1.31,0.35
		c0.82,0.47,1.31,1.32,1.31,2.27v22.16L111.99,66.09z M101.63,57.47c2.31,0,4.18,1.87,4.18,4.18c0,2.31-1.87,4.18-4.18,4.18
		c-2.31,0-4.18-1.87-4.18-4.18C97.45,59.34,99.32,57.47,101.63,57.47z M123.58,46.03c0,0.94-0.49,1.79-1.31,2.26l-11.64,6.73
		c-1.57,0.91-3.45,0.91-5.02,0c-1.57-0.91-2.51-2.53-2.51-4.35V32.7l19.16,11.07c0.02,0.01,0.04,0.02,0.07,0.04
		C123.11,44.29,123.58,45.11,123.58,46.03z M81.22,43.78l19.17-11.09v17.99v0.01c0,1.82-0.94,3.44-2.51,4.35
		c-1.54,0.89-3.37,0.9-4.92,0.05c-0.03-0.02-0.05-0.03-0.08-0.05l-11.64-6.73c-0.02-0.01-0.05-0.02-0.07-0.04
		c-0.78-0.48-1.25-1.3-1.25-2.23C79.91,45.1,80.4,44.26,81.22,43.78z M104.4,88.51c-0.82-0.47-1.31-1.32-1.31-2.27V72.79v-0.01
		c0-1.82,0.94-3.44,2.51-4.35c0.77-0.45,1.64-0.68,2.51-0.68c0.83,0,1.66,0.22,2.41,0.63c0.03,0.02,0.05,0.03,0.08,0.05l15.57,9
		l-19.16,11.08C106.2,88.99,105.22,88.99,104.4,88.51z M149.41,63.99l-19.17,11.09V52.92v0c0-0.95,0.49-1.79,1.31-2.27
		c0.4-0.23,0.85-0.36,1.31-0.36c0.38,0,0.76,0.09,1.11,0.26l8.15,4.7l0.01-0.01l7.3,4.22c0.82,0.47,1.31,1.32,1.31,2.26
		C150.72,62.68,150.23,63.52,149.41,63.99z M96.48,88.52L77.31,77.44l15.54-8.99c1.57-0.91,3.45-0.91,5.02,0
		c1.57,0.91,2.51,2.53,2.51,4.35v13.46v0c0,0.95-0.49,1.79-1.31,2.27c-0.8,0.46-1.75,0.47-2.55,0.03
		C96.51,88.54,96.5,88.53,96.48,88.52z M130.24,101.94V78.22l20.51-11.87c0.82-0.47,1.8-0.47,2.62,0c0.82,0.47,1.31,1.32,1.31,2.27
		v15.74c0,4.92-2.65,9.51-6.91,11.98l-13.6,7.87c-0.82,0.47-1.8,0.47-2.62,0C130.73,103.74,130.24,102.89,130.24,101.94z
		 M74.61,44.33c0.44,0,0.84,0.17,1.16,0.48c0.41,0.41,0.57,0.97,0.44,1.55c-0.13,0.6-0.62,1.09-1.22,1.22
		c-0.57,0.13-1.14-0.03-1.55-0.44c-0.41-0.41-0.57-0.97-0.44-1.55c0.13-0.6,0.62-1.09,1.22-1.22
		C74.35,44.34,74.48,44.33,74.61,44.33z M75.95,58.45L75.95,58.45l0-5.57c0.01-0.93,0.5-1.77,1.31-2.23
		c0.4-0.23,0.85-0.36,1.31-0.36c0.43,0,0.86,0.11,1.24,0.32c0.02,0.01,0.04,0.02,0.06,0.03l11.64,6.73c0.03,0.02,0.07,0.04,0.1,0.05
		c1.52,0.92,2.43,2.51,2.43,4.3c0,1.81-0.94,3.44-2.51,4.35l-15.57,9.01V58.45z M127.53,27.22v11.94c0,0.95-0.49,1.79-1.31,2.27
		c-0.8,0.46-1.75,0.47-2.55,0.03c-0.02-0.01-0.03-0.02-0.05-0.03l-19.17-11.08l23.08-13.35V27.22z M123.62,104.21l-15.35-8.87
		c-0.76-0.48-1.22-1.3-1.22-2.21c0-0.95,0.49-1.79,1.31-2.26l19.17-11.09v22.17v0c0,0.95-0.49,1.79-1.31,2.27
		c-0.8,0.46-1.74,0.47-2.55,0.03C123.66,104.23,123.64,104.22,123.62,104.21z M154.76,55.71l-0.02,0.06
		c-0.21,0.58-0.61,1.05-1.16,1.36c-0.83,0.47-1.82,0.47-2.65,0l-16.45-9.43c-0.61-0.48-0.99-1.19-1.02-1.92
		c0-0.03-0.01-0.05-0.01-0.08c-0.01-0.15-0.02-0.29-0.04-0.44c-0.01-0.04-0.01-0.08-0.02-0.12c-0.03-0.17-0.07-0.34-0.11-0.5
		c0-0.01-0.01-0.02-0.01-0.04c-0.05-0.18-0.12-0.36-0.19-0.53c-0.01-0.03-0.03-0.07-0.05-0.1c-0.06-0.12-0.12-0.25-0.19-0.36
		c-0.02-0.03-0.03-0.06-0.04-0.09c-0.02-0.03-0.04-0.07-0.08-0.11c-0.38-0.59-0.89-1.09-1.48-1.46c-0.65-0.8-1.01-1.78-1.01-2.82
		V27.22h0V16.99l11.54,6.67c0.08,0.05,0.17,0.08,0.25,0.11l5.68,3.28c4.35,2.51,7.05,7.19,7.05,12.21V55.71z M101.76,28.78
		L77.28,14.64L94.7,4.59c4.35-2.51,9.75-2.51,14.1,0l17.41,10.05L101.76,28.78z M95.11,90.86c0.02,0.01,0.04,0.02,0.07,0.04
		c0.78,0.48,1.25,1.31,1.25,2.23c0,0.95-0.49,1.79-1.31,2.26l-6.75,3.9l-1.36,0.78l0,0L79,104.72c-0.63,0.37-1.39,0.37-2.03,0
		c-0.63-0.36-1.01-1.01-1.01-1.74v-8.93h0l0-14.27L95.11,90.86z"/>
</g>
<g>
	<path class="st2" d="M12.54,170.86c-2.36,0-4.48-0.55-6.36-1.66s-3.37-2.6-4.47-4.5c-1.11-1.89-1.67-4.02-1.7-6.38V137.1
		c0-0.61,0.17-1.08,0.52-1.43c0.35-0.35,0.82-0.52,1.43-0.52c0.58,0,1.04,0.17,1.39,0.52c0.35,0.35,0.52,0.83,0.52,1.43v12.99
		c1-1.36,2.3-2.46,3.91-3.29c1.6-0.83,3.39-1.25,5.36-1.25c2.3,0,4.36,0.55,6.18,1.66s3.25,2.61,4.29,4.52
		c1.04,1.91,1.57,4.06,1.57,6.45c0,2.42-0.55,4.59-1.66,6.5s-2.61,3.42-4.5,4.52S14.96,170.86,12.54,170.86z M12.54,167.41
		c1.7,0,3.22-0.41,4.57-1.23c1.35-0.82,2.41-1.92,3.18-3.29c0.77-1.38,1.16-2.95,1.16-4.7c0-1.73-0.39-3.29-1.16-4.68
		c-0.77-1.39-1.83-2.49-3.18-3.29c-1.35-0.8-2.87-1.2-4.57-1.2c-1.63,0-3.13,0.4-4.47,1.2c-1.35,0.8-2.4,1.9-3.16,3.29
		c-0.76,1.39-1.14,2.95-1.14,4.68c0,1.76,0.38,3.32,1.14,4.7c0.76,1.38,1.81,2.48,3.16,3.29S10.9,167.41,12.54,167.41z"/>
	<path class="st2" d="M32.62,170.63c-0.61,0-1.08-0.17-1.41-0.5c-0.33-0.33-0.5-0.8-0.5-1.41v-21.03c0-0.61,0.17-1.07,0.5-1.41
		c0.33-0.33,0.8-0.5,1.41-0.5c0.61,0,1.07,0.17,1.39,0.5c0.32,0.33,0.48,0.8,0.48,1.41v21.03c0,0.61-0.16,1.08-0.48,1.41
		C33.69,170.46,33.22,170.63,32.62,170.63z M32.39,155.23c0.06-1.85,0.54-3.51,1.43-4.97c0.89-1.47,2.07-2.63,3.54-3.48
		s3.08-1.27,4.84-1.27c1.54,0,2.72,0.23,3.52,0.68s1.1,1.08,0.89,1.86c-0.09,0.42-0.28,0.73-0.57,0.91c-0.29,0.18-0.62,0.27-1,0.27
		s-0.81-0.03-1.29-0.09c-1.79-0.21-3.37-0.1-4.75,0.34c-1.38,0.44-2.48,1.16-3.29,2.16c-0.82,1-1.23,2.2-1.23,3.59H32.39z"/>
	<path class="st2" d="M59.51,170.86c-2.3,0-4.36-0.55-6.18-1.66s-3.26-2.61-4.32-4.52c-1.06-1.91-1.59-4.06-1.59-6.45
		c0-2.42,0.55-4.59,1.66-6.5c1.11-1.91,2.61-3.41,4.52-4.52s4.04-1.66,6.41-1.66c2.39,0,4.54,0.55,6.43,1.66
		c1.89,1.11,3.39,2.61,4.5,4.52c1.11,1.91,1.67,4.07,1.7,6.5L71.1,159c0,2.24-0.51,4.25-1.52,6.04c-1.02,1.79-2.39,3.2-4.13,4.25
		S61.72,170.86,59.51,170.86z M60.06,167.41c1.7,0,3.2-0.4,4.52-1.2c1.32-0.8,2.36-1.9,3.13-3.29c0.77-1.39,1.16-2.95,1.16-4.68
		c0-1.76-0.39-3.32-1.16-4.7c-0.77-1.38-1.82-2.48-3.13-3.29c-1.32-0.82-2.83-1.23-4.52-1.23c-1.67,0-3.17,0.41-4.52,1.23
		c-1.35,0.82-2.42,1.92-3.2,3.29c-0.79,1.38-1.18,2.95-1.18,4.7c0,1.73,0.39,3.29,1.18,4.68c0.79,1.39,1.86,2.49,3.2,3.29
		C56.89,167,58.39,167.41,60.06,167.41z M70.73,170.63c-0.58,0-1.05-0.17-1.43-0.52c-0.38-0.35-0.57-0.81-0.57-1.39v-7.5l0.86-3.95
		l3.04,0.95v10.49c0,0.58-0.18,1.04-0.54,1.39C71.73,170.46,71.28,170.63,70.73,170.63z"/>
	<path class="st2" d="M80.64,141.28c-0.73,0-1.35-0.26-1.86-0.79c-0.52-0.53-0.77-1.16-0.77-1.89c0-0.76,0.26-1.38,0.79-1.86
		c0.53-0.48,1.14-0.73,1.84-0.73c0.7,0,1.31,0.24,1.84,0.73s0.79,1.11,0.79,1.86c0,0.73-0.26,1.36-0.77,1.89
		C81.99,141.02,81.37,141.28,80.64,141.28z M80.68,170.63c-0.58,0-1.04-0.17-1.41-0.52c-0.36-0.35-0.55-0.83-0.55-1.43v-20.94
		c0-0.61,0.18-1.08,0.55-1.43c0.36-0.35,0.83-0.52,1.41-0.52c0.58,0,1.04,0.17,1.39,0.52c0.35,0.35,0.52,0.83,0.52,1.43v20.94
		c0,0.61-0.17,1.08-0.52,1.43C81.72,170.46,81.26,170.63,80.68,170.63z"/>
	<path class="st2" d="M92,170.63c-0.61,0-1.08-0.17-1.43-0.52c-0.35-0.35-0.52-0.81-0.52-1.39v-20.99c0-0.61,0.17-1.08,0.52-1.43
		c0.35-0.35,0.83-0.52,1.43-0.52c0.58,0,1.04,0.17,1.39,0.52c0.35,0.35,0.52,0.83,0.52,1.43v20.99c0,0.58-0.17,1.04-0.52,1.39
		C93.03,170.46,92.57,170.63,92,170.63z M111.26,170.63c-0.58,0-1.04-0.18-1.41-0.54s-0.54-0.82-0.54-1.36v-11.58
		c0-1.85-0.34-3.35-1.02-4.52s-1.61-2.04-2.79-2.64c-1.18-0.59-2.53-0.89-4.04-0.89c-1.42,0-2.7,0.28-3.84,0.84s-2.04,1.32-2.7,2.27
		c-0.67,0.95-1,2.05-1,3.29h-2.63c0.06-1.91,0.57-3.61,1.52-5.11s2.23-2.69,3.84-3.57c1.6-0.88,3.39-1.32,5.36-1.32
		c2.12,0,4.02,0.45,5.7,1.34c1.68,0.89,3.01,2.2,4,3.93c0.98,1.73,1.48,3.85,1.48,6.36v11.58c0,0.54-0.18,1-0.54,1.36
		S111.8,170.63,111.26,170.63z"/>
	<path class="st2" d="M121.48,160.82c-0.61,0-1.08-0.18-1.43-0.55c-0.35-0.36-0.52-0.82-0.52-1.36V137.1c0-0.61,0.17-1.08,0.52-1.43
		c0.35-0.35,0.83-0.52,1.43-0.52c0.58,0,1.04,0.17,1.39,0.52c0.35,0.35,0.52,0.83,0.52,1.43v21.81c0,0.54-0.17,1-0.52,1.36
		S122.05,160.82,121.48,160.82z M121.48,170.63c-0.61,0-1.08-0.17-1.43-0.52c-0.35-0.35-0.52-0.81-0.52-1.39v-20.99
		c0-0.61,0.17-1.08,0.52-1.43c0.35-0.35,0.83-0.52,1.43-0.52c0.58,0,1.04,0.17,1.39,0.52c0.35,0.35,0.52,0.83,0.52,1.43v20.99
		c0,0.58-0.17,1.04-0.52,1.39C122.52,170.46,122.05,170.63,121.48,170.63z M140.74,170.63c-0.58,0-1.04-0.18-1.41-0.54
		s-0.54-0.82-0.54-1.36v-11.58c0-1.85-0.34-3.35-1.02-4.52s-1.61-2.04-2.79-2.64c-1.18-0.59-2.53-0.89-4.04-0.89
		c-1.42,0-2.7,0.28-3.84,0.84s-2.04,1.32-2.7,2.27c-0.67,0.95-1,2.05-1,3.29h-2.63c0.06-1.91,0.57-3.61,1.52-5.11
		s2.23-2.69,3.84-3.57c1.6-0.88,3.39-1.32,5.36-1.32c2.12,0,4.02,0.45,5.7,1.34c1.68,0.89,3.01,2.2,4,3.93
		c0.98,1.73,1.48,3.85,1.48,6.36v11.58c0,0.54-0.18,1-0.54,1.36S141.29,170.63,140.74,170.63z"/>
	<path class="st2" d="M151.55,141.28c-0.73,0-1.35-0.26-1.86-0.79c-0.52-0.53-0.77-1.16-0.77-1.89c0-0.76,0.26-1.38,0.79-1.86
		c0.53-0.48,1.14-0.73,1.84-0.73c0.7,0,1.31,0.24,1.84,0.73s0.79,1.11,0.79,1.86c0,0.73-0.26,1.36-0.77,1.89
		C152.9,141.02,152.28,141.28,151.55,141.28z M151.6,170.63c-0.58,0-1.04-0.17-1.41-0.52c-0.36-0.35-0.55-0.83-0.55-1.43v-20.94
		c0-0.61,0.18-1.08,0.55-1.43c0.36-0.35,0.83-0.52,1.41-0.52c0.58,0,1.04,0.17,1.39,0.52c0.35,0.35,0.52,0.83,0.52,1.43v20.94
		c0,0.61-0.17,1.08-0.52,1.43C152.64,170.46,152.17,170.63,151.6,170.63z"/>
	<path class="st2" d="M169.41,170.63c-0.79,0-1.38-0.42-1.77-1.27l-9.95-21.08c-0.21-0.42-0.24-0.85-0.07-1.27
		c0.17-0.42,0.49-0.76,0.98-1c0.45-0.24,0.9-0.28,1.34-0.11c0.44,0.17,0.78,0.46,1.02,0.89l9.45,20.49h-1.95l9.36-20.49
		c0.18-0.46,0.51-0.76,1-0.91c0.48-0.15,0.95-0.12,1.41,0.09c0.48,0.24,0.8,0.58,0.95,1.02c0.15,0.44,0.14,0.86-0.05,1.25
		l-9.86,21.12C170.88,170.21,170.25,170.63,169.41,170.63z"/>
	<path class="st2" d="M195.12,170.86c-2.48,0-4.68-0.54-6.59-1.61c-1.91-1.07-3.41-2.57-4.5-4.47c-1.09-1.91-1.64-4.09-1.64-6.54
		c0-2.48,0.51-4.67,1.54-6.56c1.03-1.89,2.45-3.38,4.25-4.48c1.8-1.09,3.88-1.63,6.25-1.63c2.3,0,4.31,0.52,6.02,1.57
		c1.71,1.04,3.03,2.49,3.95,4.34c0.92,1.85,1.39,3.95,1.39,6.32c0,0.51-0.17,0.93-0.5,1.25s-0.76,0.48-1.27,0.48h-18.99v-3.13h19.22
		l-1.95,1.36c0.03-1.67-0.27-3.16-0.91-4.5c-0.64-1.33-1.54-2.38-2.73-3.13c-1.18-0.76-2.59-1.14-4.22-1.14
		c-1.73,0-3.23,0.39-4.52,1.18c-1.29,0.79-2.27,1.89-2.95,3.29c-0.68,1.41-1.02,3.01-1.02,4.79s0.39,3.38,1.18,4.77
		c0.79,1.39,1.87,2.48,3.25,3.27c1.38,0.79,2.96,1.18,4.75,1.18c1.03,0,2.08-0.18,3.16-0.55c1.07-0.36,1.93-0.82,2.57-1.36
		c0.36-0.27,0.78-0.42,1.25-0.43c0.47-0.02,0.86,0.11,1.16,0.39c0.45,0.39,0.69,0.82,0.7,1.27c0.01,0.45-0.19,0.85-0.61,1.18
		c-1,0.85-2.27,1.54-3.82,2.09C197.98,170.58,196.51,170.86,195.12,170.86z"/>
</g>
</svg>
